####
#
# OBJ File Generated by Meshlab
#
####
# Object 3V-3.obj
#
# Vertices: 156
# Faces: 308
#
####
vn -0.997013 -0.042047 0.064779
v 3.654347 5.132680 3.334138
vn -0.784853 -0.552038 -0.281531
v 3.711424 4.974445 2.974372
vn -0.604746 0.372474 -0.703950
v 3.697520 5.092725 2.879889
vn -0.944135 0.325340 0.052574
v 3.681152 5.118439 3.014633
vn -0.948460 0.087621 -0.304541
v 3.680136 5.126484 3.216209
vn -0.547891 0.823411 0.147684
v 3.674094 5.191485 3.345667
vn -0.952366 -0.302529 0.038412
v 3.694459 4.967251 3.392234
vn -0.922481 -0.318872 -0.217597
v 3.707067 5.033077 3.279014
vn -0.971347 -0.213372 0.104675
v 3.711480 5.026694 3.120445
vn -0.548597 0.497691 0.671822
v 3.702198 5.144750 3.417070
vn -0.366149 0.877434 -0.309910
v 3.716428 5.177185 3.190496
vn -0.881177 -0.437844 -0.178381
v 3.754133 4.919655 3.293982
vn -0.865382 -0.493058 -0.089483
v 3.754430 4.848210 3.390195
vn -0.431971 0.259382 -0.863784
v 3.831231 5.097348 2.841893
vn -0.290257 0.521467 0.802386
v 3.803415 5.099602 3.490850
vn -0.021341 0.831482 0.555142
v 3.926911 5.140732 3.434454
vn -0.172416 0.940053 -0.294233
v 3.758310 5.170613 2.979618
vn -0.330928 -0.469870 -0.818357
v 3.788213 4.993370 2.892197
vn -0.250427 0.939354 -0.234308
v 3.829231 5.148248 3.152463
vn -0.862628 -0.163930 0.478539
v 3.750971 4.878798 3.480385
vn -0.821408 -0.567878 -0.052943
v 3.775699 4.899818 3.068008
vn -0.073806 0.920906 -0.382732
v 3.877503 5.110501 2.949977
vn -0.697916 0.714517 -0.048776
v 3.729594 5.148401 3.101929
vn -0.831057 0.469709 0.297855
v 3.842122 4.094688 2.914383
vn -0.938270 -0.338222 0.072493
v 3.803111 3.940451 2.889238
vn -0.946007 0.276521 0.169139
v 3.830239 4.112718 2.810400
vn -0.994940 0.024688 -0.097387
v 3.831249 4.081634 2.618800
vn -0.923291 -0.293589 -0.247669
v 3.835824 4.738264 3.311327
vn -0.902023 -0.389763 -0.185576
v 3.811134 4.764678 3.358258
vn -0.891662 -0.283102 0.353258
v 3.802426 4.698066 3.474833
vn -0.847313 -0.510312 -0.147113
v 3.810408 4.838514 3.195915
vn -0.908099 0.375332 -0.185691
v 3.808618 4.848798 2.755291
vn -0.933217 -0.346618 -0.094672
v 3.816790 4.874565 2.994202
vn 0.036857 0.928845 0.368631
v 3.762746 5.165970 3.373345
vn -0.888317 -0.458091 -0.032324
v 3.828506 3.959893 2.715966
vn -0.937262 0.095155 -0.335388
v 3.838290 4.509335 2.677225
vn -0.958457 -0.094027 -0.269294
v 3.840184 4.532880 3.364600
vn -0.931330 -0.230119 0.282260
v 3.834010 4.578240 3.460981
vn -0.669593 -0.001578 -0.742726
v 3.835686 4.952389 2.898967
vn -0.143368 0.955252 -0.258727
v 3.848953 5.166637 3.013627
vn -0.600683 -0.797317 -0.058871
v 3.860431 3.815290 2.284408
vn -0.655281 -0.131590 -0.743835
v 3.867011 4.319744 3.298647
vn -0.799869 -0.407868 0.440288
v 3.848929 4.355777 3.413733
vn -0.928371 -0.152960 0.338720
v 3.849668 4.382666 2.754471
vn -0.984922 0.074982 -0.155903
v 3.854628 4.270735 2.595360
vn -0.975408 -0.122121 0.183483
v 3.840969 4.477076 2.759683
vn -0.969548 -0.168968 0.177273
v 3.838818 4.668367 2.909181
vn -0.079050 0.996841 -0.007673
v 3.786454 5.197702 3.263263
vn -0.361365 -0.432404 -0.826101
v 3.862861 3.846084 2.169108
vn -0.803479 -0.592398 0.059044
v 3.858362 3.881271 2.595883
vn 0.099275 0.334704 -0.937079
v 3.900810 3.951954 2.188982
vn -0.991269 0.029411 -0.128533
v 3.858768 4.099024 2.469354
vn -0.954363 0.139107 -0.264273
v 3.870900 4.033138 2.262863
vn -0.567313 -0.658513 -0.494487
v 3.906235 4.156980 3.267015
vn -0.923480 0.161267 0.348106
v 3.847524 4.231166 2.756497
vn -0.357431 0.433172 -0.827408
v 3.883977 4.435955 2.566486
vn -0.743377 -0.382675 0.548589
v 3.870049 4.457300 2.853507
vn -0.374498 -0.550942 -0.745798
v 3.883447 4.589683 3.279818
vn -0.955215 -0.059975 -0.289772
v 3.830624 4.677486 2.746508
vn -0.897521 -0.440856 -0.010050
v 3.872994 4.758058 3.090274
vn -0.178659 -0.178085 0.967660
v 3.897871 4.727972 3.622112
vn -0.896295 -0.334683 -0.290933
v 3.864638 4.743791 3.228154
vn -0.581275 0.027549 0.813240
v 3.847503 4.859778 3.586781
vn -0.071579 -0.217966 -0.973328
v 3.926383 4.995974 2.865012
vn -0.729018 -0.654216 0.201332
v 3.874047 3.833004 2.522849
vn 0.087858 0.832842 0.546493
v 3.914268 4.098724 3.014353
vn -0.432553 0.752122 -0.497203
v 3.875128 4.172365 2.332066
vn 0.057846 -0.380814 0.922840
v 3.917584 4.451262 3.507459
vn -0.591941 -0.536294 0.601660
v 3.891161 4.573189 2.971548
vn 0.520560 -0.845771 0.116999
v 3.945237 3.808029 2.440743
vn -0.196762 -0.950871 0.239017
v 3.902750 3.905385 2.948957
vn -0.784290 -0.332205 0.523955
v 3.835846 3.962279 3.036635
vn -0.104337 0.175507 0.978934
v 3.881400 4.048307 3.146023
vn -0.505643 0.542584 -0.670767
v 3.883891 4.257395 2.460913
vn 0.464621 -0.435717 0.770895
v 3.969579 4.352225 3.457640
vn 0.715593 0.371513 -0.591528
v 3.955407 4.366280 2.544163
vn 0.033323 -0.443673 0.895569
v 3.908289 4.385116 2.836936
vn -0.637705 0.028816 -0.769741
v 3.858002 4.818445 2.671405
vn -0.179047 -0.308525 -0.934213
v 3.936071 5.043326 2.781264
vn 0.680058 -0.360096 0.638633
v 3.967637 3.970685 3.055696
vn -0.144718 0.491069 0.859016
v 3.939555 4.238788 2.814429
vn -0.202237 0.108155 -0.973346
v 3.921797 4.645870 2.638696
vn 0.178334 0.129685 0.975387
v 3.957509 4.852419 3.613346
vn -0.307675 0.756555 -0.577028
v 3.885408 4.945072 2.677392
vn 0.636686 -0.739511 -0.218528
v 3.965005 3.823276 2.271266
vn 0.767928 0.011885 -0.640426
v 3.957648 3.869188 2.194442
vn 0.214724 -0.966599 0.139931
v 3.930545 3.872695 2.776355
vn 0.788691 0.095748 -0.607288
v 3.947679 4.026195 2.295862
vn 0.092705 0.408302 -0.908128
v 3.909853 4.100920 2.229219
vn 0.847502 0.401367 -0.347339
v 3.956877 4.173716 2.422738
vn 0.673886 -0.024356 -0.738433
v 3.926339 4.239231 3.249556
vn 0.734879 -0.231520 -0.637457
v 3.968816 4.586474 3.322837
vn 0.252171 -0.565347 0.785362
v 3.940533 4.476449 2.906394
vn 0.817341 -0.405734 0.409063
v 3.973438 4.616886 2.948957
vn 0.115347 0.360359 -0.925654
v 3.934562 4.557915 2.618243
vn -0.024161 -0.422191 0.906185
v 3.930830 4.573626 3.562828
vn 0.385535 -0.922683 0.004290
v 3.928293 4.665040 3.148048
vn 0.525597 0.244063 -0.814973
v 3.947975 4.866016 2.653013
vn 0.375319 0.835943 -0.400419
v 3.964005 4.910101 2.753868
vn -0.362558 0.287891 0.886380
v 3.858747 4.984573 3.566823
vn 0.699715 -0.696221 0.160232
v 3.964805 3.869744 2.585673
vn 0.957021 -0.289732 -0.012896
v 3.991282 3.934760 2.714700
vn 0.816756 -0.524447 0.240552
v 3.994562 3.923580 2.959566
vn 0.985928 0.001239 -0.167169
v 3.969849 3.995720 2.317984
vn 0.994592 -0.019616 -0.101991
v 3.974162 4.049544 2.524066
vn 0.752332 0.348818 -0.558859
v 3.967161 4.117320 2.291111
vn 0.269965 -0.843567 0.464234
v 3.952048 4.235246 3.378450
vn 0.991174 0.087077 -0.099962
v 3.986418 4.248667 2.595085
vn 0.951984 -0.105814 -0.287281
v 3.987034 4.305633 3.368303
vn 0.975484 0.092632 0.199625
v 3.986882 4.231489 2.742829
vn 0.824538 0.187318 -0.533899
v 3.984865 4.454530 2.611780
vn 0.865361 -0.498544 0.051030
v 3.981816 4.749290 3.074056
vn 0.059888 0.965852 -0.252079
v 3.958052 5.186787 3.020063
vn 0.906614 0.297797 0.298945
v 3.980000 4.056531 2.902167
vn 0.994559 -0.002667 -0.104141
v 3.991042 4.089809 2.655084
vn 0.991879 -0.120366 0.041091
v 4.012532 4.003864 2.800032
vn 0.939990 -0.202525 0.274596
v 3.988103 4.413772 2.774367
vn 0.877549 0.069005 -0.474496
v 3.989094 4.636197 2.701154
vn 0.776112 -0.557056 -0.295530
v 3.988370 4.710512 3.213746
vn -0.065666 -0.373011 0.925500
v 3.925089 4.650261 3.599802
vn 0.189450 -0.386477 -0.902632
v 4.054257 5.007692 2.831668
vn 0.010927 0.716733 -0.697262
v 3.947994 5.125473 2.813199
vn 0.262996 0.403358 0.876433
v 3.999387 5.035478 3.547002
vn -0.011431 0.972229 -0.233753
v 3.923674 5.239974 3.146791
vn 0.963562 -0.149604 0.221735
v 4.011192 4.476603 3.428974
vn 0.804927 -0.258201 0.534251
v 4.003138 4.592579 3.500758
vn 0.964115 -0.258496 -0.060518
v 4.024844 4.662905 3.430188
vn 0.927570 0.133241 -0.349086
v 4.003196 4.789211 2.725961
vn 0.758752 -0.199600 0.620044
v 4.030919 4.818664 3.551995
vn 0.993906 -0.109761 -0.010130
v 4.010194 4.634606 2.822109
vn 0.655844 -0.562745 -0.503177
v 4.027611 4.938006 2.920363
vn 0.900856 -0.434074 -0.006156
v 4.025621 4.803974 3.022699
vn 0.883714 0.361053 -0.297809
v 4.023826 4.893932 2.840302
vn 0.216968 0.976178 -0.000533
v 4.014074 5.200145 3.236127
vn 0.858122 -0.497637 -0.126432
v 4.047290 4.830556 3.224136
vn 0.155218 0.984304 -0.083977
v 4.075755 5.170538 2.977579
vn 0.906830 -0.412665 -0.085829
v 4.101489 4.924397 3.197811
vn 0.316062 0.926022 -0.206368
v 4.027731 5.144004 3.175493
vn 0.890820 -0.448207 0.074498
v 4.063608 4.762435 3.413748
vn 0.833933 -0.550846 0.033527
v 4.136480 4.960527 2.963660
vn 0.896409 -0.438859 0.062077
v 4.100418 4.822810 3.433653
vn 0.832287 -0.139610 0.536476
v 4.115401 4.916716 3.479773
vn 0.387723 -0.588544 -0.709427
v 4.125666 4.966864 2.864794
vn 0.167306 0.750564 -0.639267
v 4.075399 5.145963 2.857529
vn 0.827871 -0.544160 -0.136086
v 4.101009 4.898685 3.047419
vn 0.937847 -0.334245 -0.093393
v 4.138866 4.955174 3.340922
vn 0.908170 -0.053624 0.415153
v 4.152864 4.997583 3.429878
vn 0.963074 -0.267395 -0.031432
v 4.137982 5.034478 3.175873
vn 0.698667 0.711111 0.078648
v 4.156643 5.151057 3.110425
vn 0.890417 0.371493 -0.262964
v 4.168090 5.152611 3.202228
vn 0.652932 0.757411 -0.003011
v 4.183569 5.176609 3.306696
vn 0.911525 -0.002439 -0.411237
v 4.222321 5.082288 2.880589
vn 0.453760 0.405040 0.793753
v 4.096923 5.114607 3.482886
vn 0.741898 0.669727 0.032445
v 4.179188 5.148254 2.966643
vn 0.377820 0.804087 0.459016
v 4.164415 5.166522 3.397373
vn 0.999376 -0.008743 0.034237
v 4.206294 5.124493 3.313727
# 156 vertices, 0 vertices normals

f 1//1 8//8 7//7
f 7//7 10//10 1//1
f 1//1 5//5 8//8
f 6//6 5//5 1//1
f 10//10 6//6 1//1
f 3//3 2//2 4//4
f 2//2 9//9 4//4
f 5//5 23//23 8//8
f 7//7 8//8 12//12
f 12//12 8//8 9//9
f 7//7 20//20 10//10
f 23//23 9//9 8//8
f 23//23 4//4 9//9
f 17//17 3//3 4//4
f 23//23 17//17 4//4
f 5//5 11//11 23//23
f 11//11 5//5 6//6
f 7//7 12//12 13//13
f 13//13 20//20 7//7
f 3//3 18//18 2//2
f 20//20 15//15 10//10
f 10//10 34//34 6//6
f 48//48 11//11 6//6
f 9//9 21//21 12//12
f 2//2 21//21 9//9
f 22//22 14//14 3//3
f 16//16 10//10 15//15
f 22//22 3//3 17//17
f 10//10 16//16 34//34
f 19//19 11//11 48//48
f 14//14 18//18 3//3
f 11//11 19//19 23//23
f 48//48 6//6 34//34
f 29//29 30//30 20//20
f 13//13 29//29 20//20
f 12//12 21//21 31//31
f 39//39 33//33 2//2
f 100//100 20//20 63//63
f 2//2 18//18 39//39
f 17//17 40//40 22//22
f 71//71 72//72 25//25
f 24//24 25//25 72//72
f 27//27 35//35 26//26
f 26//26 35//35 25//25
f 30//30 29//29 38//38
f 28//28 38//38 29//29
f 32//32 59//59 33//33
f 29//29 31//31 28//28
f 63//63 20//20 30//30
f 30//30 61//61 63//63
f 12//12 31//31 29//29
f 12//12 29//29 13//13
f 33//33 60//60 21//21
f 21//21 60//60 31//31
f 33//33 21//21 2//2
f 32//32 33//33 39//39
f 15//15 20//20 100//100
f 40//40 17//17 23//23
f 23//23 19//19 40//40
f 124//124 19//19 48//48
f 24//24 72//72 66//66
f 26//26 25//25 24//24
f 55//55 27//27 26//26
f 45//45 27//27 55//55
f 36//36 44//44 46//46
f 38//38 37//37 43//43
f 36//36 46//46 47//47
f 28//28 37//37 38//38
f 59//59 36//36 47//47
f 78//78 59//59 32//32
f 47//47 33//33 59//59
f 33//33 47//47 60//60
f 28//28 31//31 62//62
f 31//31 60//60 62//62
f 64//64 39//39 18//18
f 18//18 14//14 64//64
f 35//35 71//71 25//25
f 27//27 50//50 35//35
f 27//27 52//52 50//50
f 66//66 72//72 73//73
f 45//45 52//52 27//27
f 54//54 107//107 42//42
f 44//44 45//45 55//55
f 36//36 45//45 44//44
f 37//37 42//42 43//43
f 56//56 45//45 36//36
f 44//44 57//57 46//46
f 46//46 69//69 47//47
f 59//59 82//82 36//36
f 28//28 62//62 37//37
f 120//120 30//30 38//38
f 30//30 120//120 61//61
f 32//32 84//84 78//78
f 99//99 84//84 32//32
f 32//32 39//39 99//99
f 79//79 64//64 14//14
f 53//53 41//41 65//65
f 87//87 35//35 50//50
f 41//41 53//53 49//49
f 49//49 53//53 51//51
f 35//35 87//87 71//71
f 67//67 53//53 52//52
f 52//52 53//53 65//65
f 52//52 65//65 50//50
f 74//74 67//67 52//52
f 89//89 53//53 67//67
f 45//45 74//74 52//52
f 81//81 55//55 26//26
f 91//91 54//54 42//42
f 107//107 43//43 42//42
f 45//45 56//56 74//74
f 81//81 44//44 55//55
f 81//81 77//77 44//44
f 77//77 57//57 44//44
f 68//68 38//38 43//43
f 69//69 46//46 57//57
f 56//56 36//36 95//95
f 37//37 62//62 58//58
f 47//47 69//69 60//60
f 82//82 59//59 78//78
f 62//62 60//60 58//58
f 122//122 79//79 14//14
f 34//34 134//134 48//48
f 34//34 155//155 134//134
f 124//124 40//40 19//19
f 49//49 85//85 41//41
f 65//65 41//41 70//70
f 89//89 51//51 53//53
f 81//81 24//24 66//66
f 81//81 26//26 24//24
f 76//76 74//74 56//56
f 43//43 75//75 68//68
f 93//93 57//57 77//77
f 42//42 37//37 58//58
f 95//95 36//36 82//82
f 60//60 69//69 97//97
f 38//38 96//96 120//120
f 60//60 97//97 58//58
f 64//64 99//99 39//39
f 40//40 124//124 113//113
f 48//48 134//134 124//124
f 73//73 72//72 80//80
f 69//69 57//57 93//93
f 96//96 38//38 68//68
f 58//58 97//97 119//119
f 84//84 98//98 78//78
f 123//123 16//16 15//15
f 113//113 22//22 40//40
f 101//101 65//65 70//70
f 49//49 86//86 85//85
f 65//65 101//101 50//50
f 101//101 87//87 50//50
f 51//51 86//86 49//49
f 80//80 72//72 71//71
f 80//80 66//66 73//73
f 67//67 106//106 89//89
f 114//114 81//81 66//66
f 74//74 90//90 67//67
f 109//109 91//91 42//42
f 56//56 95//95 111//111
f 58//58 92//92 42//42
f 96//96 68//68 126//126
f 69//69 93//93 94//94
f 92//92 58//58 119//119
f 69//69 94//94 97//97
f 83//83 63//63 61//61
f 78//78 98//98 82//82
f 83//83 100//100 63//63
f 84//84 99//99 98//98
f 15//15 100//100 123//123
f 22//22 122//122 14//14
f 16//16 155//155 34//34
f 85//85 70//70 41//41
f 87//87 101//101 102//102
f 104//104 86//86 88//88
f 86//86 51//51 88//88
f 88//88 51//51 89//89
f 114//114 66//66 80//80
f 106//106 67//67 90//90
f 75//75 43//43 107//107
f 75//75 107//107 109//109
f 76//76 90//90 74//74
f 77//77 81//81 110//110
f 111//111 76//76 56//56
f 92//92 109//109 42//42
f 125//125 126//126 68//68
f 94//94 112//112 97//97
f 82//82 98//98 118//118
f 133//133 99//99 64//64
f 144//144 22//22 113//113
f 16//16 123//123 153//153
f 155//155 151//151 134//134
f 85//85 104//104 70//70
f 104//104 101//101 70//70
f 86//86 104//104 85//85
f 71//71 87//87 103//103
f 103//103 80//80 71//71
f 104//104 105//105 101//101
f 114//114 80//80 103//103
f 88//88 106//106 104//104
f 106//106 88//88 89//89
f 106//106 90//90 104//104
f 104//104 90//90 105//105
f 110//110 81//81 114//114
f 105//105 90//90 108//108
f 91//91 107//107 54//54
f 107//107 91//91 109//109
f 90//90 76//76 108//108
f 117//117 77//77 110//110
f 93//93 77//77 117//117
f 68//68 75//75 125//125
f 118//118 111//111 95//95
f 93//93 117//117 94//94
f 82//82 118//118 95//95
f 112//112 119//119 97//97
f 120//120 129//129 61//61
f 129//129 83//83 61//61
f 118//118 98//98 128//128
f 98//98 99//99 128//128
f 79//79 121//121 64//64
f 136//136 144//144 113//113
f 102//102 101//101 105//105
f 105//105 115//115 102//102
f 114//114 116//116 110//110
f 116//116 115//115 110//110
f 105//105 108//108 115//115
f 115//115 108//108 110//110
f 108//108 76//76 110//110
f 76//76 111//111 110//110
f 110//110 111//111 117//117
f 75//75 109//109 125//125
f 125//125 109//109 92//92
f 111//111 118//118 117//117
f 118//118 130//130 117//117
f 117//117 130//130 94//94
f 120//120 96//96 126//126
f 94//94 130//130 132//132
f 112//112 94//94 132//132
f 83//83 129//129 123//123
f 123//123 100//100 83//83
f 133//133 64//64 131//131
f 121//121 79//79 122//122
f 153//153 155//155 16//16
f 138//138 124//124 134//134
f 116//116 103//103 87//87
f 102//102 116//116 87//87
f 116//116 114//114 103//103
f 115//115 116//116 102//102
f 92//92 127//127 125//125
f 127//127 126//126 125//125
f 130//130 118//118 128//128
f 119//119 127//127 92//92
f 126//126 127//127 129//129
f 129//129 120//120 126//126
f 119//119 112//112 135//135
f 112//112 132//132 135//135
f 130//130 128//128 133//133
f 133//133 128//128 99//99
f 144//144 122//122 22//22
f 113//113 124//124 138//138
f 127//127 119//119 135//135
f 139//139 127//127 135//135
f 130//130 131//131 132//132
f 133//133 131//131 130//130
f 132//132 131//131 145//145
f 122//122 144//144 121//121
f 139//139 129//129 127//127
f 135//135 141//141 139//139
f 121//121 143//143 131//131
f 131//131 64//64 121//121
f 129//129 142//142 123//123
f 123//123 142//142 153//153
f 149//149 113//113 138//138
f 141//141 129//129 139//139
f 132//132 145//145 135//135
f 145//145 131//131 140//140
f 113//113 149//149 136//136
f 137//137 141//141 135//135
f 137//137 135//135 145//145
f 137//137 146//146 141//141
f 141//141 142//142 129//129
f 136//136 154//154 144//144
f 134//134 151//151 138//138
f 146//146 137//137 148//148
f 131//131 143//143 140//140
f 145//145 148//148 137//137
f 121//121 144//144 143//143
f 150//150 149//149 138//138
f 151//151 150//150 138//138
f 146//146 142//142 141//141
f 147//147 142//142 146//146
f 140//140 148//148 145//145
f 152//152 140//140 143//143
f 142//142 147//147 153//153
f 140//140 149//149 148//148
f 148//148 149//149 150//150
f 136//136 149//149 154//154
f 156//156 150//150 151//151
f 154//154 149//149 140//140
f 155//155 153//153 147//147
f 144//144 152//152 143//143
f 146//146 148//148 150//150
f 156//156 147//147 146//146
f 154//154 140//140 152//152
f 151//151 155//155 147//147
f 151//151 147//147 156//156
f 150//150 156//156 146//146
f 154//154 152//152 144//144
# 308 faces, 0 coords texture

# End of File
