####
#
# OBJ File Generated by Meshlab
#
####
# Object AMG-L.obj
#
# Vertices: 72
# Faces: 140
#
####
vn -0.871655 -0.478022 -0.108228
v 2.572312 4.049199 1.879143
vn -0.896001 0.419175 -0.146541
v 2.548981 4.206989 1.839852
vn -0.957130 0.285092 0.051224
v 2.552852 4.171858 1.961357
vn -0.899917 -0.243107 0.362005
v 2.553220 4.087536 2.033491
vn -0.798062 0.469860 0.377265
v 2.597119 4.245207 2.052903
vn -0.425132 0.782881 -0.454269
v 2.622129 4.240716 1.781426
vn -0.239371 0.939199 -0.246185
v 2.702655 4.298444 1.821075
vn -0.735692 -0.058780 -0.674760
v 2.585896 4.154764 1.730189
vn -0.533539 0.845676 0.012978
v 2.639326 4.269271 1.936178
vn -0.558341 -0.735081 0.384592
v 2.659000 3.986663 2.037086
vn -0.652269 -0.220192 0.725300
v 2.676000 4.090357 2.154281
vn -0.163316 0.608250 -0.776762
v 2.741873 4.216112 1.688851
vn -0.128431 -0.932588 -0.337321
v 2.809708 3.932686 1.799841
vn -0.663296 0.575057 0.478903
v 2.687026 4.266380 2.142534
vn -0.403632 -0.914771 0.016620
v 2.684993 3.939584 1.927394
vn -0.213888 -0.166525 -0.962560
v 2.726186 4.097488 1.650548
vn -0.544458 -0.744138 -0.387071
v 2.665023 3.975973 1.824480
vn -0.618449 -0.312213 0.721140
v 2.763967 4.156567 2.234989
vn -0.808553 0.295447 0.508875
v 2.750230 4.247037 2.253356
vn -0.321716 -0.689575 -0.648834
v 2.721220 4.008659 1.727931
vn -0.448960 -0.553844 0.701208
v 2.790113 4.023516 2.189537
vn -0.350262 0.936095 0.032278
v 2.746128 4.314955 1.990733
vn -0.352020 -0.883457 0.309169
v 2.830179 3.938589 2.088513
vn -0.363406 -0.420469 0.831350
v 2.876205 4.063205 2.249908
vn -0.598268 -0.072770 0.797985
v 2.836796 4.243595 2.352022
vn 0.035484 0.972293 -0.231058
v 2.870537 4.314406 1.891343
vn -0.631489 0.738601 0.235987
v 2.799248 4.341298 2.266293
vn -0.120506 -0.992625 -0.013199
v 2.829883 3.921503 1.950026
vn -0.260569 -0.640819 0.722118
v 2.908949 3.993172 2.238005
vn 0.165957 -0.528940 -0.832274
v 2.855895 4.040676 1.677508
vn 0.284050 0.166153 -0.944303
v 2.940414 4.142640 1.667768
vn 0.029421 0.890383 -0.454261
v 2.858928 4.285306 1.782285
vn -0.175527 0.971613 -0.158614
v 2.884059 4.365574 2.136723
vn -0.176831 0.974298 -0.139551
v 2.824131 4.338030 2.066279
vn 0.306090 0.703792 -0.641082
v 2.885495 4.248404 1.720045
vn -0.106129 -0.311037 0.944453
v 2.950989 4.179062 2.386701
vn -0.428651 0.848586 0.310098
v 2.891068 4.386109 2.345745
vn -0.082929 -0.996436 -0.015416
v 2.936748 3.901276 2.017808
vn -0.128086 -0.914298 0.384256
v 2.915212 3.911470 2.144962
vn 0.245367 -0.820041 0.517038
v 3.038906 3.952143 2.176786
vn 0.208058 -0.729746 -0.651293
v 2.877326 3.972996 1.740214
vn 0.036200 -0.649977 0.759091
v 3.015927 4.003865 2.255922
vn -0.241462 -0.579504 0.778378
v 2.927183 4.104489 2.310440
vn 0.033620 0.996110 -0.081448
v 2.994946 4.380963 2.194392
vn -0.003092 0.632986 0.774157
v 2.969116 4.398742 2.381332
vn 0.166025 -0.947952 -0.271704
v 2.960635 3.926863 1.863118
vn 0.416624 0.736968 -0.532262
v 3.026299 4.265171 1.856893
vn 0.064779 0.944914 -0.320843
v 2.988320 4.329656 1.969947
vn 0.268417 -0.956499 0.114291
v 3.048921 3.913484 2.101564
vn 0.416359 0.177040 0.891797
v 3.061964 4.272082 2.386935
vn 0.478525 -0.717925 -0.505566
v 3.060495 3.971646 1.864664
vn 0.615686 -0.109089 -0.780404
v 3.066398 4.106134 1.761011
vn 0.093395 0.970764 -0.221119
v 3.053964 4.362928 2.086718
vn 0.399647 -0.890143 -0.218925
v 3.038798 3.929813 1.930968
vn 0.431718 0.901691 0.023918
v 3.128947 4.366191 2.201418
vn 0.729830 -0.650490 -0.210264
v 3.169099 3.995724 1.989248
vn 0.413893 -0.508939 0.754767
v 3.146395 4.102100 2.304851
vn 0.498928 -0.860490 0.103093
v 3.092106 3.936000 2.081490
vn 0.693892 0.121144 -0.709815
v 3.135111 4.119872 1.827958
vn 0.464069 -0.190144 0.865151
v 3.131707 4.182937 2.353716
vn 0.414693 0.836258 -0.358751
v 3.145670 4.331298 2.054318
vn 0.698773 -0.470693 -0.538669
v 3.138969 4.025165 1.880078
vn 0.584707 -0.750684 0.307557
v 3.170561 3.993300 2.159248
vn 0.852936 0.022273 -0.521540
v 3.195587 4.142621 1.893439
vn 0.549840 0.721892 0.420176
v 3.099913 4.363285 2.284709
vn 0.895210 0.196320 0.400072
v 3.242598 4.231853 2.241520
vn 0.722243 0.538841 -0.433609
v 3.182017 4.250963 1.991744
vn 0.925525 -0.367745 -0.090368
v 3.218212 4.082818 2.074230
vn 0.970191 0.116205 -0.212663
v 3.242850 4.164976 1.989468
vn 0.994084 0.058691 -0.091390
v 3.235451 4.192452 2.092287
vn 0.844804 0.506500 -0.172522
v 3.233744 4.282707 2.120184
vn 0.899095 -0.366930 0.238728
v 3.226095 4.076472 2.208693
# 72 vertices, 0 vertices normals

f 3//3 1//1 4//4
f 1//1 2//2 8//8
f 2//2 1//1 3//3
f 2//2 6//6 8//8
f 9//9 2//2 3//3
f 9//9 3//3 5//5
f 4//4 1//1 10//10
f 11//11 4//4 10//10
f 1//1 8//8 17//17
f 5//5 3//3 4//4
f 9//9 6//6 2//2
f 1//1 17//17 15//15
f 15//15 10//10 1//1
f 8//8 20//20 17//17
f 11//11 5//5 4//4
f 9//9 7//7 6//6
f 16//16 20//20 8//8
f 14//14 9//9 5//5
f 8//8 12//12 16//16
f 5//5 11//11 14//14
f 6//6 12//12 8//8
f 7//7 9//9 22//22
f 13//13 15//15 17//17
f 23//23 10//10 15//15
f 11//11 18//18 14//14
f 22//22 9//9 14//14
f 11//11 10//10 21//21
f 19//19 14//14 18//18
f 32//32 12//12 6//6
f 32//32 6//6 7//7
f 22//22 14//14 19//19
f 21//21 18//18 11//11
f 13//13 28//28 15//15
f 13//13 17//17 20//20
f 21//21 10//10 23//23
f 20//20 16//16 30//30
f 12//12 31//31 16//16
f 19//19 27//27 22//22
f 13//13 20//20 41//41
f 35//35 12//12 32//32
f 32//32 7//7 26//26
f 22//22 26//26 7//7
f 27//27 34//34 22//22
f 20//20 30//30 41//41
f 31//31 30//30 16//16
f 25//25 19//19 18//18
f 27//27 19//19 25//25
f 15//15 28//28 23//23
f 23//23 29//29 21//21
f 29//29 24//24 21//21
f 18//18 21//21 24//24
f 33//33 34//34 27//27
f 41//41 46//46 13//13
f 18//18 43//43 25//25
f 34//34 26//26 22//22
f 25//25 37//37 27//27
f 33//33 27//27 37//37
f 23//23 28//28 38//38
f 39//39 29//29 23//23
f 43//43 18//18 24//24
f 12//12 35//35 31//31
f 25//25 43//43 36//36
f 45//45 25//25 36//36
f 37//37 25//25 45//45
f 33//33 48//48 34//34
f 48//48 26//26 34//34
f 37//37 44//44 33//33
f 38//38 28//28 46//46
f 39//39 23//23 38//38
f 13//13 46//46 28//28
f 40//40 29//29 39//39
f 30//30 52//52 41//41
f 42//42 24//24 29//29
f 33//33 53//53 48//48
f 32//32 47//47 35//35
f 26//26 47//47 32//32
f 53//53 33//33 44//44
f 49//49 40//40 39//39
f 41//41 51//51 46//46
f 29//29 40//40 42//42
f 42//42 43//43 24//24
f 30//30 31//31 52//52
f 43//43 60//60 36//36
f 50//50 45//45 36//36
f 45//45 44//44 37//37
f 38//38 49//49 39//39
f 52//52 51//51 41//41
f 35//35 52//52 31//31
f 47//47 26//26 48//48
f 45//45 65//65 44//44
f 46//46 49//49 38//38
f 51//51 54//54 46//46
f 57//57 43//43 42//42
f 35//35 47//47 52//52
f 54//54 49//49 46//46
f 48//48 61//61 47//47
f 53//53 44//44 55//55
f 54//54 58//58 49//49
f 52//52 62//62 51//51
f 47//47 59//59 52//52
f 50//50 65//65 45//45
f 55//55 44//44 65//65
f 58//58 40//40 49//49
f 57//57 60//60 43//43
f 60//60 50//50 36//36
f 48//48 53//53 61//61
f 51//51 56//56 54//54
f 40//40 63//63 42//42
f 63//63 57//57 42//42
f 55//55 61//61 53//53
f 56//56 58//58 54//54
f 58//58 63//63 40//40
f 59//59 62//62 52//52
f 47//47 67//67 64//64
f 61//61 67//67 47//47
f 56//56 63//63 58//58
f 62//62 56//56 51//51
f 47//47 64//64 59//59
f 60//60 66//66 65//65
f 65//65 50//50 60//60
f 63//63 72//72 57//57
f 61//61 71//71 67//67
f 56//56 68//68 63//63
f 62//62 64//64 56//56
f 59//59 64//64 62//62
f 67//67 69//69 64//64
f 63//63 68//68 72//72
f 66//66 60//60 57//57
f 55//55 65//65 66//66
f 64//64 68//68 56//56
f 71//71 55//55 66//66
f 61//61 55//55 71//71
f 64//64 69//69 68//68
f 66//66 57//57 72//72
f 69//69 67//67 70//70
f 67//67 71//71 70//70
f 70//70 72//72 68//68
f 66//66 72//72 70//70
f 69//69 70//70 68//68
f 70//70 71//71 66//66
# 140 faces, 0 coords texture

# End of File
