####
#
# OBJ File Generated by Meshlab
#
####
# Object CL-R.obj
#
# Vertices: 80
# Faces: 156
#
####
vn -0.811754 -0.417535 -0.408314
v 5.124172 3.454126 2.488480
vn -0.951064 0.037357 0.306728
v 5.155598 3.517387 2.630419
vn -0.981171 0.191940 0.021494
v 5.145743 3.674739 2.544584
vn -0.516183 -0.851214 0.094816
v 5.176665 3.392762 2.655866
vn 0.032703 -0.022909 -0.999203
v 5.171570 3.604862 2.461077
vn -0.966966 -0.008257 0.254773
v 5.201184 3.545087 2.755445
vn 0.564530 -0.607853 -0.558409
v 5.200336 3.433252 2.556464
vn -0.995014 0.013389 0.098832
v 5.213846 3.620798 2.940101
vn -0.906010 0.234626 0.352273
v 5.188935 3.691651 2.635314
vn -0.753994 0.264827 -0.601133
v 5.187414 3.824571 2.519606
vn -0.737595 0.063574 -0.672244
v 5.216698 3.959051 2.514368
vn -0.543633 -0.649155 0.532034
v 5.229863 3.502091 2.889027
vn -0.673448 -0.376275 0.636305
v 5.236205 3.652100 3.081212
vn -0.964668 0.245923 0.094537
v 5.246562 3.697685 2.783722
vn 0.088602 -0.886614 0.453944
v 5.242511 3.402237 2.772148
vn 0.093885 -0.780304 0.618313
v 5.235601 3.576307 2.979565
vn 0.729105 -0.210373 -0.651268
v 5.267377 3.619660 2.544154
vn -0.973878 0.223820 -0.038287
v 5.235824 3.708224 2.940912
vn -0.899402 0.233279 0.369672
v 5.234774 3.889483 2.613406
vn 0.172579 -0.130213 -0.976351
v 5.269993 4.029480 2.490072
vn -0.940383 0.239088 -0.241903
v 5.249289 4.126846 2.513266
vn 0.817728 -0.563561 -0.117131
v 5.259495 3.424899 2.675592
vn 0.804754 -0.485478 0.341588
v 5.267181 3.533584 2.872541
vn -0.932502 0.225343 0.282243
v 5.246027 3.803340 2.688402
vn -0.958903 0.282302 -0.028474
v 5.263295 3.775594 2.889066
vn -0.608355 -0.109522 0.786072
v 5.243761 3.778344 3.126782
vn -0.974158 0.217162 0.062097
v 5.279650 3.946087 3.100730
vn -0.979853 0.179504 -0.087556
v 5.273224 4.230717 2.574929
vn 0.821842 -0.405389 0.400296
v 5.308520 3.695318 3.007985
vn 0.546758 -0.128902 -0.827309
v 5.278300 3.854468 2.528657
vn -0.953332 0.296724 0.055791
v 5.293172 3.848933 2.883762
vn -0.981746 0.155111 0.110072
v 5.307031 3.967081 2.772985
vn -0.978929 0.169192 -0.114336
v 5.303094 3.958299 2.998676
vn -0.930286 0.214106 0.297869
v 5.282556 3.979493 2.655518
vn -0.668809 0.079437 0.739178
v 5.292771 4.246942 3.131017
vn -0.885791 0.385008 -0.259119
v 5.289347 4.391375 2.602073
vn -0.933562 0.262836 0.243679
v 5.289562 4.365182 3.061711
vn -0.969204 0.227473 -0.094336
v 5.284898 4.523579 2.796563
vn 0.882332 -0.171515 -0.438261
v 5.313214 3.629649 2.615336
vn 0.894866 -0.403008 0.191831
v 5.316111 3.586647 2.808328
vn 0.128623 -0.233522 0.963807
v 5.298443 3.875493 3.155127
vn -0.998763 0.045649 0.019717
v 5.322824 4.089236 2.810457
vn -0.674278 0.099960 0.731681
v 5.298599 4.097610 3.163021
vn -0.984551 0.029187 0.172649
v 5.312831 4.158055 2.688133
vn -0.995827 -0.075202 -0.051695
v 5.306429 4.409614 2.950306
vn -0.993912 -0.054507 -0.095749
v 5.315482 4.281134 2.995495
vn -0.997841 0.061386 -0.023342
v 5.309059 4.399037 2.708048
vn -0.993715 -0.111930 -0.001448
v 5.318083 4.383771 2.832345
vn -0.292456 0.913696 0.282187
v 5.311720 4.529794 2.911224
vn 0.792816 -0.234643 -0.562482
v 5.318121 3.774806 2.620426
vn 0.851780 -0.191972 0.487461
v 5.347806 3.899557 3.099582
vn 0.636716 -0.267951 -0.723045
v 5.326406 3.920918 2.569774
vn 0.795664 -0.026985 0.605137
v 5.360480 4.182634 3.104263
vn 0.934485 -0.327737 0.139021
v 5.350364 3.684603 2.805238
vn 0.925411 -0.354135 -0.134915
v 5.313521 3.548472 2.705853
vn 0.920989 -0.323302 -0.217384
v 5.377512 3.768676 2.715404
vn 0.903577 -0.340802 0.259621
v 5.342688 3.758841 2.936928
vn -0.179325 0.238926 -0.954336
v 5.327429 4.246065 2.492542
vn 0.774571 -0.358236 -0.521255
v 5.377723 3.823856 2.647250
vn 0.976261 -0.058391 0.208579
v 5.383816 4.141859 3.002664
vn 0.417518 0.345403 0.840461
v 5.352032 4.366540 3.128362
vn -0.339762 0.470160 -0.814562
v 5.318731 4.342599 2.539682
vn -0.107714 0.953296 -0.282179
v 5.351569 4.526967 2.703585
vn 0.410399 0.777923 0.475823
v 5.347727 4.467713 3.003311
vn 0.935749 -0.318456 0.151526
v 5.376667 3.761905 2.844161
vn 0.952461 -0.149057 0.265706
v 5.378285 3.937939 3.048187
vn 0.987535 -0.065260 0.143230
v 5.400459 3.976975 2.911196
vn 0.826676 -0.229904 -0.513566
v 5.401263 4.038440 2.568057
vn 0.949900 -0.072989 0.303913
v 5.398780 4.283241 3.037752
vn 0.900794 0.427741 0.074890
v 5.396519 4.432505 2.804834
vn 0.974875 -0.215163 -0.057645
v 5.405090 3.822920 2.757619
vn 0.993688 -0.109772 0.023107
v 5.423793 4.055428 2.712473
vn 0.980188 -0.098462 0.171865
v 5.409141 4.123471 2.863389
vn 0.692522 -0.098798 -0.714600
v 5.392318 4.139558 2.531954
vn 0.594738 0.626128 -0.504233
v 5.390207 4.463576 2.633553
vn 0.986824 -0.034440 -0.158091
v 5.437530 4.178262 2.626200
vn 0.995097 -0.034912 0.092537
v 5.433871 4.209685 2.811622
vn 0.969280 0.160143 0.186683
v 5.412198 4.350344 2.993131
vn 0.778208 0.234687 -0.582507
v 5.418823 4.313602 2.555283
vn 0.986218 0.165449 -0.000401
v 5.421688 4.321930 2.744584
# 80 vertices, 0 vertices normals

f 1//1 2//2 3//3
f 1//1 3//3 5//5
f 4//4 2//2 1//1
f 1//1 7//7 4//4
f 2//2 4//4 6//6
f 9//9 3//3 2//2
f 3//3 9//9 10//10
f 5//5 7//7 1//1
f 2//2 6//6 9//9
f 10//10 19//19 11//11
f 4//4 7//7 22//22
f 4//4 15//15 6//6
f 6//6 15//15 12//12
f 8//8 6//6 12//12
f 8//8 12//12 16//16
f 6//6 8//8 14//14
f 6//6 14//14 9//9
f 3//3 10//10 5//5
f 19//19 10//10 9//9
f 19//19 9//9 24//24
f 22//22 15//15 4//4
f 5//5 17//17 7//7
f 13//13 8//8 16//16
f 8//8 18//18 14//14
f 5//5 10//10 17//17
f 9//9 14//14 24//24
f 18//18 8//8 13//13
f 26//26 18//18 13//13
f 10//10 11//11 30//30
f 15//15 23//23 12//12
f 23//23 16//16 12//12
f 17//17 22//22 7//7
f 10//10 30//30 17//17
f 25//25 14//14 18//18
f 26//26 13//13 29//29
f 26//26 27//27 18//18
f 19//19 24//24 34//34
f 19//19 21//21 11//11
f 21//21 20//20 11//11
f 58//58 20//20 21//21
f 15//15 22//22 23//23
f 22//22 55//55 40//40
f 23//23 22//22 40//40
f 23//23 29//29 16//16
f 16//16 29//29 13//13
f 39//39 17//17 30//30
f 18//18 27//27 25//25
f 41//41 26//26 29//29
f 14//14 25//25 24//24
f 34//34 24//24 25//25
f 31//31 25//25 33//33
f 26//26 41//41 27//27
f 27//27 33//33 25//25
f 11//11 20//20 30//30
f 34//34 21//21 19//19
f 28//28 21//21 34//34
f 28//28 58//58 21//21
f 17//17 55//55 22//22
f 40//40 29//29 23//23
f 25//25 31//31 34//34
f 32//32 34//34 31//31
f 43//43 27//27 41//41
f 43//43 33//33 27//27
f 34//34 44//44 28//28
f 33//33 43//43 46//46
f 35//35 46//46 43//43
f 36//36 28//28 44//44
f 62//62 58//58 28//28
f 28//28 36//36 62//62
f 36//36 44//44 47//47
f 37//37 46//46 35//35
f 49//49 45//45 37//37
f 63//63 36//36 47//47
f 37//37 64//64 49//49
f 47//47 38//38 63//63
f 49//49 38//38 45//45
f 17//17 39//39 55//55
f 30//30 50//50 39//39
f 52//52 50//50 30//30
f 33//33 32//32 31//31
f 51//51 43//43 41//41
f 20//20 52//52 30//30
f 44//44 34//34 32//32
f 44//44 32//32 42//42
f 42//42 32//32 33//33
f 33//33 46//46 42//42
f 43//43 53//53 35//35
f 45//45 48//48 46//46
f 37//37 35//35 61//61
f 37//37 45//45 46//46
f 61//61 64//64 37//37
f 38//38 48//48 45//45
f 38//38 47//47 48//48
f 40//40 54//54 29//29
f 54//54 57//57 29//29
f 56//56 39//39 50//50
f 57//57 51//51 29//29
f 41//41 29//29 51//51
f 59//59 50//50 52//52
f 58//58 74//74 20//20
f 44//44 42//42 46//46
f 48//48 44//44 46//46
f 48//48 47//47 44//44
f 61//61 35//35 53//53
f 49//49 63//63 38//38
f 54//54 40//40 55//55
f 39//39 56//56 55//55
f 55//55 56//56 54//54
f 57//57 66//66 51//51
f 68//68 59//59 52//52
f 20//20 68//68 52//52
f 53//53 43//43 51//51
f 75//75 36//36 63//63
f 56//56 65//65 54//54
f 50//50 59//59 56//56
f 65//65 57//57 54//54
f 71//71 65//65 56//56
f 65//65 66//66 57//57
f 66//66 53//53 51//51
f 66//66 60//60 53//53
f 53//53 69//69 61//61
f 62//62 36//36 75//75
f 64//64 78//78 70//70
f 61//61 78//78 64//64
f 49//49 64//64 70//70
f 75//75 63//63 70//70
f 71//71 67//67 65//65
f 56//56 59//59 71//71
f 67//67 66//66 65//65
f 59//59 68//68 71//71
f 67//67 60//60 66//66
f 68//68 20//20 74//74
f 67//67 73//73 60//60
f 69//69 53//53 60//60
f 79//79 74//74 58//58
f 62//62 79//79 58//58
f 69//69 78//78 61//61
f 70//70 63//63 49//49
f 71//71 72//72 67//67
f 71//71 68//68 72//72
f 67//67 72//72 73//73
f 72//72 68//68 76//76
f 76//76 68//68 74//74
f 73//73 69//69 60//60
f 73//73 78//78 69//69
f 80//80 70//70 78//78
f 75//75 79//79 62//62
f 79//79 75//75 80//80
f 75//75 70//70 80//80
f 72//72 77//77 73//73
f 74//74 79//79 76//76
f 78//78 73//73 77//77
f 76//76 79//79 80//80
f 77//77 80//80 78//78
f 72//72 76//76 77//77
f 76//76 80//80 77//77
# 156 faces, 0 coords texture

# End of File
