####
#
# OBJ File Generated by Meshlab
#
####
# Object fx-lr.obj
#
# Vertices: 211
# Faces: 420
#
####
vn -0.394193 -0.918318 -0.036123
v 2.603387 5.206846 2.633912
vn -0.857839 0.393674 0.330353
v 2.601535 5.413899 2.781469
vn -0.799423 0.373555 -0.470510
v 2.589946 5.343551 2.713728
vn -0.219584 -0.845490 0.486755
v 2.676230 5.283223 2.776870
vn -0.113195 0.747865 -0.654129
v 2.653193 5.443180 2.780421
vn -0.182590 0.942888 -0.278609
v 2.716253 5.497910 2.865556
vn 0.412655 0.608427 -0.677889
v 2.750487 5.400503 2.778350
vn -0.120147 0.983449 -0.135618
v 2.762155 5.517200 2.897255
vn 0.585849 -0.026670 -0.809981
v 2.743494 5.284386 2.672187
vn -0.692112 -0.254863 0.675297
v 2.738226 5.381037 2.912813
vn -0.406708 -0.785845 0.465871
v 2.812817 5.334714 2.968097
vn 0.705396 -0.630746 -0.323381
v 2.810130 5.330310 2.765488
vn -0.599425 0.213841 0.771338
v 2.919243 5.397047 3.076538
vn -0.635109 0.270190 0.723626
v 2.812071 5.459659 2.986972
vn 0.584385 0.452810 -0.673392
v 2.847749 5.454607 2.916162
vn -0.094586 0.907613 0.409013
v 2.897814 5.526307 3.003920
vn 0.638031 -0.494970 -0.589848
v 2.880601 5.335950 2.870508
vn 0.456084 0.844087 -0.281966
v 2.967899 5.481106 3.064931
vn -0.520533 -0.646665 0.557556
v 2.963743 5.324426 3.143974
vn -0.311133 0.811095 0.495300
v 3.026114 5.468821 3.116217
vn -0.486382 0.367595 0.792658
v 3.054105 5.355803 3.204257
vn 0.672502 -0.199487 -0.712703
v 3.006859 5.334911 2.987005
vn -0.510897 -0.671224 0.537068
v 3.089533 5.298276 3.242835
vn 0.506880 -0.219924 -0.833490
v 3.147412 5.346606 3.102201
vn 0.055994 -0.816871 -0.574096
v 3.248056 5.293232 3.224294
vn 0.145956 0.989025 -0.022955
v 3.120979 5.463622 3.178582
vn -0.125963 0.744436 0.655704
v 3.208020 5.413797 3.245703
vn 0.455217 0.208185 -0.865700
v 3.368201 5.325588 3.207839
vn -0.587575 -0.333183 0.737390
v 3.221835 5.265323 3.327011
vn 0.530056 0.483233 -0.696797
v 3.227294 5.381120 3.147878
vn 0.205154 0.941188 0.268472
v 3.291859 5.394369 3.286083
vn 0.202507 0.807096 0.554606
v 3.413391 5.332384 3.352119
vn -0.494666 -0.381790 0.780732
v 3.292240 5.214062 3.367361
vn -0.661442 -0.466127 0.587554
v 3.423935 5.131201 3.415628
vn -0.420756 -0.701557 -0.575137
v 3.517772 5.091375 3.362092
vn 0.568482 0.563780 -0.599150
v 3.479566 5.288327 3.250035
vn -0.673682 -0.527402 0.517688
v 3.376090 5.166967 3.378901
vn -0.261674 0.250508 0.932080
v 3.513825 5.188924 3.409750
vn -0.159739 -0.683747 -0.712021
v 3.386177 5.233892 3.279879
vn -0.785704 -0.492927 0.373754
v 3.553460 5.018790 3.434040
vn 0.115009 0.629665 0.768307
v 3.503277 5.254016 3.386492
vn 0.211092 -0.370740 -0.904429
v 3.594639 5.124145 3.322803
vn 0.620316 0.471117 -0.627102
v 3.605019 5.223666 3.283730
vn -0.225315 -0.440090 -0.869226
v 3.702517 4.874246 3.410663
vn 0.239782 -0.335816 -0.910896
v 3.673730 4.967886 3.376702
vn -0.830055 -0.290602 0.475983
v 3.636533 4.921929 3.469857
vn -0.008000 0.626957 0.779012
v 3.589552 5.201268 3.438497
vn -0.852741 -0.455181 -0.256210
v 3.689483 4.776529 3.496142
vn -0.209081 0.411929 0.886905
v 3.664135 5.110918 3.499460
vn 0.848498 0.445342 -0.285868
v 3.710759 5.141854 3.430801
vn -0.830178 -0.119876 0.544457
v 3.711408 4.272286 3.533947
vn -0.796817 -0.141852 0.587333
v 3.752267 4.792265 3.549003
vn -0.496774 0.269908 0.824843
v 3.732233 4.972190 3.574395
vn 0.753215 0.080115 -0.652878
v 3.726993 4.966002 3.457189
vn 0.704361 -0.704361 -0.088045
v 3.783439 3.958907 2.591520
vn 0.000000 0.000000 0.000000
v 3.739073 4.036926 2.475643
vn 0.000000 -1.000000 0.000000
v 3.738870 4.022204 2.558161
vn -0.889126 -0.349267 0.295750
v 3.727335 4.146919 3.459055
vn -0.616214 -0.032400 0.786912
v 3.784902 4.357462 3.572072
vn 0.439094 -0.138548 -0.887694
v 3.793102 4.723567 3.472560
vn 0.341215 -0.154006 -0.927283
v 3.756876 4.807132 3.435624
vn -0.363473 0.351336 0.862815
v 3.774951 4.878205 3.647059
vn -0.890935 0.406759 0.201947
v 3.768442 3.914573 2.828093
vn -0.825998 0.466114 -0.316962
v 3.741387 3.978119 2.658891
vn -0.348035 -0.395997 0.849740
v 3.837385 4.192889 3.526323
vn -0.938075 0.115789 -0.326508
v 3.754118 4.396703 3.514547
vn -0.980987 0.044948 0.188794
v 3.756992 4.509810 3.533959
vn -0.507128 -0.005292 -0.861855
v 3.786166 4.616287 3.478472
vn 0.549429 0.699427 0.457088
v 3.820359 4.998193 3.568338
vn 0.664785 0.664307 0.341697
v 3.797081 5.047002 3.525566
vn -0.881671 -0.469571 -0.046471
v 3.793873 3.813566 2.942766
vn -0.550618 -0.731453 -0.402239
v 3.789748 3.822853 2.741045
vn -0.987066 -0.116778 0.109832
v 3.800030 3.858311 3.024984
vn -0.965552 -0.187346 0.180583
v 3.811877 3.860337 3.178281
vn -0.959866 0.245045 -0.136418
v 3.810290 3.990832 3.227762
vn 0.482575 0.478671 -0.733482
v 3.855470 3.901185 2.651150
vn -0.980346 -0.139526 -0.139476
v 3.780100 4.073590 3.371389
vn -0.776115 0.242009 -0.582304
v 3.808186 4.263289 3.454881
vn -0.557339 0.089733 0.825422
v 3.808313 4.805371 3.674243
vn 0.052104 0.998618 -0.006931
v 3.847498 3.930859 2.908312
vn -0.825416 0.558851 -0.079841
v 3.798754 3.923363 3.020375
vn 0.140274 0.985175 0.098756
v 3.796743 3.966912 2.763670
vn -0.878085 -0.135863 0.458812
v 3.813244 4.640015 3.607165
vn -0.233665 -0.898469 -0.371690
v 3.882802 3.773662 2.823498
vn -0.797597 -0.317177 0.513068
v 3.877635 4.123607 3.522104
vn -0.369995 0.355272 -0.858420
v 3.848771 4.306104 3.387663
vn -0.878222 -0.457390 -0.139717
v 3.821016 3.742809 2.989191
vn -0.918024 -0.224821 0.326630
v 3.879778 4.027567 3.481861
vn -0.818539 -0.104101 0.564939
v 3.835005 4.517783 3.595486
vn 0.637813 0.189143 -0.746605
v 3.847742 4.681756 3.550234
vn -0.812960 -0.548633 0.195187
v 3.869483 3.686250 3.135443
vn -0.120550 -0.904091 -0.409985
v 3.924118 3.737961 2.899628
vn -0.907935 -0.304965 0.287489
v 3.850152 3.888900 3.302492
vn -0.917148 -0.272342 0.290979
v 3.890230 3.814711 3.377312
vn 0.010935 0.516571 -0.856174
v 3.896290 4.184181 3.314945
vn -0.496327 0.444396 -0.745769
v 3.826510 4.214292 3.343409
vn -0.615530 -0.293150 0.731564
v 3.862083 4.264167 3.568480
vn -0.692072 -0.110927 0.713254
v 3.869921 4.535622 3.744132
vn -0.584832 0.068922 0.808221
v 3.844187 4.684171 3.721740
vn -0.122850 -0.045610 -0.991377
v 3.916107 4.840570 3.629371
vn 0.018174 -0.447481 -0.894109
v 3.941083 3.863305 2.705302
vn 0.267767 -0.671370 0.691060
v 3.926121 3.876185 3.500287
vn -0.843505 -0.283473 0.456227
v 3.891307 4.077645 3.632975
vn -0.637010 -0.225800 0.737043
v 3.892221 4.245951 3.692266
vn -0.043481 0.333234 -0.941841
v 3.836830 4.467461 3.434980
vn -0.868338 -0.138929 0.476117
v 3.875549 4.388121 3.633550
vn 0.044717 0.494305 0.868138
v 3.874132 4.866848 3.652933
vn 0.827437 0.527418 -0.192817
v 3.873769 4.929278 3.598146
vn 0.114830 -0.843913 0.524046
v 3.903114 3.701058 3.304649
vn 0.447078 0.431741 -0.783403
v 3.975305 4.206088 3.359529
vn 0.462559 -0.859555 0.217265
v 3.944973 3.646542 3.125346
vn 0.147173 0.987246 -0.060706
v 3.930453 3.880074 2.802003
vn 0.370950 0.922631 -0.105587
v 3.962350 3.897100 2.920410
vn 0.263451 0.917817 -0.296995
v 3.917228 3.938152 3.034712
vn 0.819360 -0.232712 0.523922
v 3.964239 4.220472 3.674385
vn 0.629336 0.319092 -0.708602
v 3.965776 4.283354 3.415803
vn -0.124586 -0.913486 -0.387326
v 3.887413 3.656251 2.995938
vn 0.866755 -0.403910 0.292563
v 3.955116 3.746366 3.217969
vn 0.879202 -0.370388 0.299694
v 3.944752 3.800352 3.326062
vn 0.883966 0.465735 -0.041178
v 4.005262 3.898918 3.008128
vn 0.902461 -0.284068 0.323834
v 3.953356 3.987679 3.470158
vn 0.108506 0.811681 -0.573935
v 3.890259 4.037574 3.150806
vn 0.618765 -0.341481 0.707475
v 3.946446 4.075804 3.654837
vn -0.422031 -0.136251 0.896284
v 3.905855 4.366907 3.735148
vn 0.020246 0.144587 0.989285
v 3.941775 4.639744 3.727352
vn -0.265968 0.872409 -0.410077
v 3.928936 4.998533 3.569506
vn 0.948931 -0.274915 0.154764
v 4.007569 3.900789 3.293123
vn 0.891633 0.396183 -0.219156
v 4.007818 3.934265 3.166838
vn 0.868125 -0.264395 0.420065
v 3.952055 4.091422 3.530350
vn 0.397584 0.155531 -0.904288
v 3.997739 4.398858 3.462254
vn 0.009616 0.435508 -0.900133
v 3.928064 4.540658 3.545407
vn -0.276924 0.315352 -0.907671
v 3.945067 4.652824 3.596977
vn 0.947575 -0.317598 -0.035123
v 4.042858 3.817299 2.947549
vn 0.234219 -0.901141 -0.364811
v 4.004075 3.775328 2.796113
vn 0.746091 -0.522526 -0.412691
v 4.057576 3.820790 2.755508
vn 0.961932 -0.236748 0.136517
v 3.992097 3.753795 3.110573
vn 0.999128 0.020519 -0.036374
v 4.050785 4.153906 3.478056
vn 0.923452 -0.184952 0.336199
v 3.981538 4.310476 3.609452
vn 0.559837 -0.206778 0.802387
v 3.975141 4.367555 3.733278
vn 0.695804 -0.009284 0.718172
v 4.010344 4.638726 3.735562
vn 0.334332 0.276851 0.900875
v 4.039600 4.774118 3.680847
vn -0.757444 0.558551 -0.338082
v 4.030614 4.997656 3.551211
vn 0.861759 -0.506409 -0.030367
v 3.986607 3.679544 3.025909
vn 0.820902 0.368209 -0.436512
v 4.005402 4.045954 3.304355
vn 0.972820 -0.162383 0.165085
v 4.055614 4.319501 3.531399
vn -0.753073 0.167962 -0.636136
v 4.011497 4.730130 3.551974
vn -0.702515 0.120902 -0.701324
v 4.022793 4.855846 3.561422
vn 0.804554 0.274397 -0.526687
v 4.017278 4.147937 3.408208
vn 0.651383 0.725849 0.221004
v 4.065171 3.900388 2.812328
vn 0.259625 0.800073 -0.540812
v 4.047979 3.952806 2.685780
vn 0.986165 -0.146229 0.078073
v 4.046186 4.031461 3.380851
vn 0.837955 -0.136077 0.528502
v 4.057426 4.657328 3.604449
vn 0.531505 0.188101 0.825906
v 4.107344 4.963874 3.575791
vn 0.859969 -0.170859 0.480896
v 4.012609 4.481225 3.604862
vn -0.438733 0.150038 -0.886003
v 4.018299 4.583192 3.462656
vn -0.750489 0.212390 -0.625825
v 4.105803 4.937826 3.491121
vn -0.500664 0.033538 -0.864992
v 4.106778 4.826044 3.444458
vn 0.395648 0.340057 0.853126
v 4.073641 4.874345 3.624540
vn 0.940293 -0.254643 -0.225846
v 4.108922 4.535821 3.531036
vn -0.158323 -0.120994 -0.979946
v 4.060732 4.711253 3.446339
vn -0.534096 0.671559 0.513567
v 4.159299 5.107062 3.505163
vn -0.220598 -0.215132 -0.951344
v 4.143124 4.902972 3.406654
vn -0.560610 -0.199292 -0.803740
v 4.186785 4.982041 3.383212
vn -0.768229 0.615381 -0.176436
v 4.179463 5.195489 3.371959
vn 0.923499 -0.251800 0.289390
v 4.164249 4.747855 3.504606
vn 0.541872 0.012461 0.840368
v 4.194749 4.985712 3.480886
vn 0.846394 -0.458427 -0.271040
v 4.210953 4.828105 3.462990
vn -0.315213 -0.317500 -0.894334
v 4.212497 5.130146 3.315791
vn 0.221000 -0.591361 -0.775533
v 4.304289 5.042298 3.365657
vn -0.344384 0.294384 -0.891481
v 4.312594 5.203635 3.260883
vn 0.743299 -0.662756 -0.090888
v 4.277658 4.944489 3.444245
vn 0.283729 0.117483 0.951680
v 4.308047 5.048511 3.427054
vn 0.307524 0.390575 0.867687
v 4.272093 5.195680 3.434959
vn -0.003822 0.909373 0.415965
v 4.359073 5.259988 3.361584
vn 0.094934 -0.661158 -0.744216
v 4.467844 5.188165 3.293981
vn 0.583453 -0.796554 0.158380
v 4.426876 5.067468 3.410466
vn 0.279005 0.293204 0.914433
v 4.336736 5.147877 3.393193
vn -0.412052 0.752400 -0.513914
v 4.426868 5.260943 3.256149
vn 0.392040 0.123162 0.911666
v 4.510749 5.145855 3.395451
vn -0.069769 0.780022 0.621851
v 4.535185 5.323546 3.300896
vn 0.228539 0.464420 0.855619
v 4.529760 5.204801 3.350978
vn 0.736763 -0.638342 0.222934
v 4.533573 5.142755 3.359954
vn 0.548328 -0.707169 0.446373
v 4.657847 5.200662 3.310158
vn -0.385585 -0.075018 -0.919618
v 4.597394 5.283688 3.173067
vn 0.467556 -0.286924 0.836102
v 4.755414 5.240082 3.248529
vn -0.430568 0.668140 -0.606795
v 4.716859 5.321877 3.155231
vn -0.131961 0.989625 0.056820
v 4.658379 5.355676 3.238679
vn -0.492365 -0.619466 -0.611424
v 4.720587 5.261483 3.119548
vn -0.020797 0.955846 0.293132
v 4.756683 5.367159 3.192496
vn -0.056259 0.993421 0.099746
v 4.833164 5.386294 3.148667
vn -0.639573 -0.340327 -0.689293
v 4.870551 5.271306 2.951759
vn -0.547384 0.542824 -0.636955
v 4.936043 5.344931 3.012925
vn -0.463405 0.676575 -0.572278
v 4.896566 5.312273 2.973797
vn 0.576441 -0.525575 0.625690
v 4.863717 5.250739 3.145918
vn 0.698145 -0.330557 0.635079
v 4.971652 5.314320 3.064603
vn -0.387423 -0.721713 -0.573615
v 4.987234 5.254236 2.866538
vn 0.288946 -0.947832 0.134627
v 4.921809 5.250344 3.052219
vn 0.371543 0.539175 0.755808
v 4.927673 5.436693 3.067293
vn 0.034143 0.999177 0.021893
v 5.025131 5.466586 2.984970
vn 0.528494 -0.763411 0.371346
v 4.977674 5.275107 2.993906
vn 0.704486 -0.111406 0.700919
v 5.047147 5.353196 3.000288
vn -0.090476 0.902701 -0.420647
v 5.081570 5.443054 2.942954
vn -0.692071 -0.109127 -0.713533
v 5.086765 5.251253 2.755945
vn 0.347775 0.536033 -0.769234
v 5.225670 5.262383 2.717896
vn -0.459264 0.634669 -0.621507
v 5.053301 5.312156 2.861936
vn -0.636775 -0.597320 -0.487572
v 5.165285 5.182511 2.695589
vn 0.400640 -0.728854 0.555212
v 5.174878 5.233710 2.770278
vn 0.867116 0.412070 0.279834
v 5.145911 5.404560 2.884103
vn 0.428298 -0.771294 0.470815
v 5.093018 5.257604 2.870717
vn 0.744593 0.664005 -0.068398
v 5.207884 5.351276 2.806190
vn 0.650874 -0.688959 0.318903
v 5.223544 5.182219 2.659831
# 211 vertices, 0 vertices normals

f 4//4 3//3 1//1
f 2//2 5//5 3//3
f 3//3 4//4 10//10
f 10//10 2//2 3//3
f 4//4 1//1 9//9
f 9//9 1//1 3//3
f 3//3 7//7 9//9
f 7//7 3//3 5//5
f 2//2 6//6 5//5
f 10//10 14//14 2//2
f 5//5 6//6 7//7
f 9//9 7//7 12//12
f 14//14 6//6 2//2
f 8//8 6//6 14//14
f 9//9 12//12 4//4
f 11//11 10//10 4//4
f 12//12 11//11 4//4
f 6//6 15//15 7//7
f 15//15 6//6 8//8
f 12//12 17//17 11//11
f 17//17 12//12 7//7
f 16//16 8//8 14//14
f 17//17 7//7 15//15
f 15//15 8//8 16//16
f 13//13 14//14 10//10
f 16//16 14//14 13//13
f 11//11 19//19 13//13
f 13//13 10//10 11//11
f 17//17 19//19 11//11
f 15//15 22//22 17//17
f 13//13 18//18 16//16
f 16//16 18//18 15//15
f 17//17 22//22 19//19
f 18//18 22//22 15//15
f 18//18 13//13 20//20
f 19//19 20//20 13//13
f 24//24 22//22 18//18
f 21//21 20//20 19//19
f 22//22 24//24 19//19
f 21//21 19//19 23//23
f 26//26 20//20 21//21
f 24//24 23//23 19//19
f 20//20 24//24 18//18
f 25//25 23//23 24//24
f 23//23 27//27 21//21
f 29//29 23//23 25//25
f 23//23 29//29 27//27
f 24//24 20//20 26//26
f 26//26 21//21 27//27
f 24//24 26//26 30//30
f 30//30 27//27 31//31
f 26//26 27//27 30//30
f 29//29 31//31 27//27
f 24//24 30//30 25//25
f 25//25 30//30 28//28
f 33//33 29//29 39//39
f 29//29 25//25 39//39
f 28//28 30//30 31//31
f 28//28 39//39 25//25
f 39//39 37//37 33//33
f 37//37 41//41 33//33
f 31//31 29//29 32//32
f 32//32 29//29 33//33
f 32//32 28//28 31//31
f 32//32 33//33 41//41
f 36//36 28//28 32//32
f 37//37 35//35 34//34
f 28//28 36//36 39//39
f 39//39 35//35 37//37
f 34//34 38//38 37//37
f 38//38 41//41 37//37
f 42//42 35//35 39//39
f 40//40 34//34 35//35
f 40//40 38//38 34//34
f 39//39 36//36 43//43
f 32//32 41//41 36//36
f 42//42 39//39 43//43
f 38//38 47//47 41//41
f 36//36 41//41 43//43
f 45//45 40//40 35//35
f 47//47 38//38 40//40
f 44//44 40//40 45//45
f 42//42 45//45 35//35
f 46//46 40//40 44//44
f 49//49 47//47 40//40
f 41//41 47//47 43//43
f 46//46 49//49 40//40
f 47//47 49//49 50//50
f 44//44 48//48 46//46
f 45//45 42//42 50//50
f 42//42 43//43 50//50
f 47//47 50//50 43//43
f 44//44 61//61 48//48
f 52//52 46//46 48//48
f 53//53 46//46 52//52
f 54//54 44//44 45//45
f 49//49 46//46 53//53
f 60//60 48//48 61//61
f 50//50 54//54 45//45
f 55//55 64//64 57//57
f 66//66 51//51 59//59
f 54//54 61//61 44//44
f 70//70 49//49 53//53
f 63//63 64//64 72//72
f 64//64 63//63 82//82
f 56//56 55//55 57//57
f 78//78 77//77 58//58
f 51//51 78//78 58//58
f 51//51 58//58 65//65
f 65//65 97//97 51//51
f 67//67 66//66 59//59
f 48//48 60//60 68//68
f 52//52 48//48 83//83
f 83//83 48//48 68//68
f 53//53 52//52 62//62
f 69//69 53//53 62//62
f 49//49 70//70 50//50
f 64//64 76//76 72//72
f 55//55 76//76 64//64
f 57//57 64//64 55//55
f 51//51 66//66 78//78
f 89//89 67//67 59//59
f 83//83 68//68 67//67
f 62//62 52//52 79//79
f 50//50 70//70 54//54
f 70//70 53//53 69//69
f 63//63 72//72 71//71
f 71//71 81//81 63//63
f 81//81 71//71 73//73
f 81//81 73//73 74//74
f 75//75 81//81 74//74
f 76//76 64//64 82//82
f 57//57 55//55 56//56
f 77//77 85//85 58//58
f 85//85 65//65 58//58
f 51//51 97//97 59//59
f 105//105 66//66 67//67
f 79//79 52//52 83//83
f 61//61 108//108 60//60
f 54//54 108//108 61//61
f 69//69 62//62 108//108
f 73//73 71//71 87//87
f 84//84 71//71 72//72
f 74//74 73//73 87//87
f 80//80 63//63 81//81
f 75//75 74//74 93//93
f 55//55 64//64 76//76
f 77//77 75//75 93//93
f 77//77 95//95 75//75
f 95//95 77//77 96//96
f 78//78 96//96 77//77
f 86//86 78//78 66//66
f 106//106 89//89 59//59
f 105//105 67//67 68//68
f 83//83 67//67 89//89
f 83//83 99//99 79//79
f 90//90 60//60 108//108
f 107//107 108//108 62//62
f 69//69 108//108 54//54
f 69//69 54//54 70//70
f 74//74 87//87 91//91
f 93//93 74//74 91//91
f 81//81 114//114 80//80
f 75//75 122//122 81//81
f 93//93 88//88 77//77
f 88//88 85//85 77//77
f 78//78 86//86 96//96
f 66//66 105//105 86//86
f 97//97 106//106 59//59
f 90//90 68//68 60//60
f 107//107 62//62 79//79
f 69//69 126//126 108//108
f 87//87 117//117 91//91
f 80//80 82//82 63//63
f 114//114 81//81 122//122
f 116//116 86//86 105//105
f 98//98 89//89 106//106
f 68//68 90//90 105//105
f 99//99 83//83 89//89
f 99//99 89//89 98//98
f 100//100 90//90 108//108
f 71//71 92//92 87//87
f 71//71 84//84 92//92
f 101//101 72//72 76//76
f 88//88 93//93 94//94
f 82//82 112//112 76//76
f 112//112 82//82 80//80
f 95//95 122//122 75//75
f 97//97 65//65 85//85
f 98//98 106//106 124//124
f 90//90 131//131 105//105
f 126//126 69//69 108//108
f 111//111 117//117 143//143
f 111//111 91//91 117//117
f 87//87 92//92 117//117
f 94//94 91//91 109//109
f 91//91 94//94 93//93
f 76//76 112//112 101//101
f 103//103 94//94 102//102
f 88//88 94//94 103//103
f 85//85 88//88 103//103
f 104//104 85//85 103//103
f 103//103 123//123 104//104
f 97//97 85//85 104//104
f 96//96 86//86 110//110
f 106//106 97//97 104//104
f 124//124 106//106 104//104
f 125//125 99//99 98//98
f 125//125 141//141 99//99
f 79//79 99//99 141//141
f 94//94 109//109 102//102
f 84//84 72//72 101//101
f 112//112 80//80 113//113
f 113//113 80//80 114//114
f 103//103 102//102 123//123
f 96//96 110//110 95//95
f 139//139 124//124 104//104
f 116//116 105//105 130//130
f 105//105 131//131 130//130
f 132//132 131//131 90//90
f 100//100 132//132 90//90
f 126//126 100//100 108//108
f 91//91 111//111 109//109
f 118//118 119//119 109//109
f 119//119 102//102 109//109
f 101//101 134//134 84//84
f 119//119 121//121 102//102
f 115//115 104//104 123//123
f 116//116 110//110 86//86
f 115//115 139//139 104//104
f 124//124 125//125 98//98
f 118//118 109//109 111//111
f 111//111 136//136 118//118
f 118//118 127//127 119//119
f 114//114 122//122 128//128
f 121//121 123//123 102//102
f 129//129 123//123 121//121
f 95//95 144//144 122//122
f 123//123 129//129 115//115
f 125//125 124//124 139//139
f 79//79 141//141 107//107
f 158//158 108//108 107//107
f 126//126 108//108 158//158
f 136//136 111//111 143//143
f 117//117 92//92 133//133
f 135//135 134//134 101//101
f 121//121 119//119 127//127
f 101//101 112//112 150//150
f 120//120 113//113 114//114
f 120//120 114//114 128//128
f 128//128 122//122 144//144
f 129//129 138//138 115//115
f 115//115 138//138 139//139
f 155//155 130//130 131//131
f 140//140 125//125 139//139
f 131//131 132//132 155//155
f 146//146 155//155 132//132
f 100//100 146//146 132//132
f 100//100 147//147 146//146
f 158//158 107//107 141//141
f 100//100 126//126 142//142
f 143//143 117//117 133//133
f 84//84 134//134 92//92
f 133//133 92//92 134//134
f 95//95 148//148 144//144
f 148//148 95//95 110//110
f 137//137 145//145 129//129
f 145//145 138//138 129//129
f 116//116 148//148 110//110
f 138//138 145//145 154//154
f 138//138 154//154 139//139
f 140//140 139//139 154//154
f 141//141 125//125 140//140
f 126//126 158//158 142//142
f 120//120 143//143 133//133
f 143//143 120//120 136//136
f 128//128 127//127 136//136
f 127//127 118//118 136//136
f 136//136 120//120 128//128
f 113//113 120//120 133//133
f 113//113 149//149 112//112
f 127//127 128//128 144//144
f 144//144 151//151 127//127
f 151//151 121//121 127//127
f 151//151 129//129 121//121
f 144//144 148//148 151//151
f 129//129 151//151 137//137
f 147//147 100//100 142//142
f 150//150 135//135 101//101
f 116//116 137//137 148//148
f 116//116 145//145 137//137
f 145//145 116//116 130//130
f 155//155 159//159 130//130
f 154//154 152//152 140//140
f 152//152 141//141 140//140
f 146//146 160//160 155//155
f 142//142 158//158 153//153
f 133//133 134//134 135//135
f 135//135 149//149 133//133
f 149//149 113//113 133//133
f 112//112 149//149 150//150
f 137//137 151//151 148//148
f 147//147 157//157 160//160
f 147//147 160//160 146//146
f 142//142 156//156 147//147
f 135//135 150//150 149//149
f 158//158 141//141 152//152
f 156//156 157//157 147//147
f 130//130 159//159 145//145
f 159//159 154//154 145//145
f 154//154 159//159 152//152
f 160//160 159//159 155//155
f 152//152 165//165 158//158
f 157//157 167//167 160//160
f 156//156 142//142 161//161
f 159//159 160//160 165//165
f 159//159 165//165 152//152
f 162//162 157//157 156//156
f 162//162 156//156 163//163
f 156//156 161//161 163//163
f 165//165 153//153 158//158
f 161//161 142//142 153//153
f 161//161 164//164 163//163
f 165//165 160//160 167//167
f 162//162 167//167 157//157
f 165//165 167//167 153//153
f 153//153 167//167 166//166
f 161//161 153//153 166//166
f 164//164 168//168 163//163
f 164//164 161//161 173//173
f 167//167 171//171 166//166
f 162//162 163//163 171//171
f 169//169 163//163 168//168
f 162//162 171//171 167//167
f 161//161 166//166 173//173
f 166//166 172//172 173//173
f 171//171 172//172 166//166
f 164//164 170//170 168//168
f 171//171 163//163 169//169
f 164//164 173//173 174//174
f 174//174 170//170 164//164
f 175//175 169//169 168//168
f 177//177 173//173 172//172
f 173//173 177//177 174//174
f 168//168 170//170 175//175
f 169//169 176//176 171//171
f 176//176 172//172 171//171
f 175//175 176//176 169//169
f 172//172 179//179 177//177
f 175//175 170//170 178//178
f 178//178 170//170 174//174
f 176//176 179//179 172//172
f 181//181 174//174 177//177
f 174//174 181//181 178//178
f 180//180 178//178 181//181
f 175//175 182//182 176//176
f 179//179 181//181 177//177
f 179//179 176//176 182//182
f 175//175 178//178 184//184
f 180//180 184//184 178//178
f 179//179 182//182 181//181
f 183//183 180//180 181//181
f 182//182 183//183 181//181
f 183//183 175//175 184//184
f 182//182 175//175 183//183
f 180//180 187//187 184//184
f 184//184 185//185 183//183
f 185//185 180//180 183//183
f 187//187 186//186 184//184
f 187//187 180//180 185//185
f 187//187 189//189 186//186
f 188//188 185//185 184//184
f 188//188 184//184 186//186
f 185//185 189//189 187//187
f 186//186 193//193 188//188
f 188//188 194//194 185//185
f 193//193 191//191 188//188
f 190//190 193//193 186//186
f 190//190 186//186 189//189
f 185//185 194//194 190//190
f 190//190 189//189 185//185
f 197//197 194//194 188//188
f 197//197 188//188 191//191
f 190//190 192//192 193//193
f 198//198 192//192 190//190
f 190//190 194//194 198//198
f 196//196 197//197 191//191
f 193//193 196//196 191//191
f 195//195 198//198 194//194
f 197//197 196//196 200//200
f 195//195 194//194 197//197
f 200//200 195//195 197//197
f 205//205 193//193 192//192
f 192//192 198//198 199//199
f 196//196 209//209 200//200
f 193//193 205//205 196//196
f 195//195 201//201 198//198
f 199//199 202//202 192//192
f 201//201 195//195 200//200
f 192//192 202//202 205//205
f 196//196 205//205 203//203
f 201//201 199//199 198//198
f 209//209 196//196 203//203
f 201//201 202//202 199//199
f 207//207 209//209 203//203
f 202//202 208//208 205//205
f 201//201 200//200 209//209
f 204//204 206//206 203//203
f 206//206 207//207 203//203
f 209//209 208//208 201//201
f 208//208 210//210 205//205
f 202//202 201//201 208//208
f 203//203 205//205 210//210
f 204//204 211//211 206//206
f 204//204 203//203 210//210
f 210//210 208//208 209//209
f 207//207 210//210 209//209
f 206//206 211//211 207//207
f 210//210 207//207 204//204
f 211//211 204//204 207//207
# 420 faces, 0 coords texture

# End of File
