####
#
# OBJ File Generated by Meshlab
#
####
# Object GPi-R.obj
#
# Vertices: 44
# Faces: 84
#
####
vn -0.496042 -0.849565 -0.179392
v 4.346560 3.858812 2.618568
vn -0.963964 0.261120 -0.050889
v 4.309604 3.975599 2.568921
vn -0.776212 0.398019 0.488954
v 4.360552 3.969479 2.705431
vn -0.639059 0.604634 0.475417
v 4.455705 4.064734 2.750869
vn -0.226835 0.114833 -0.967140
v 4.437102 3.986490 2.460875
vn -0.615057 0.601822 -0.509427
v 4.407708 4.048090 2.502835
vn 0.120508 -0.610198 -0.783030
v 4.525695 3.886893 2.475257
vn -0.549979 -0.673878 0.493368
v 4.351140 3.882662 2.714835
vn -0.446648 -0.461957 0.766226
v 4.434998 3.921515 2.785309
vn -0.577994 -0.214048 -0.787468
v 4.370632 3.927057 2.482383
vn 0.182214 -0.983175 0.012827
v 4.541404 3.861051 2.571389
vn -0.374663 -0.040847 0.926261
v 4.531092 4.001242 2.872968
vn -0.581454 0.806835 0.104536
v 4.413248 4.048146 2.647417
vn -0.454379 0.760927 -0.463175
v 4.497634 4.099813 2.478565
vn -0.587405 0.780860 0.212635
v 4.562107 4.121304 2.743980
vn 0.229436 -0.879094 0.417795
v 4.585326 3.912666 2.762834
vn 0.250097 -0.944371 0.213574
v 4.581895 3.893597 2.676741
vn -0.593948 0.804487 -0.005178
v 4.583108 4.147023 2.563049
vn 0.546335 -0.799627 -0.249228
v 4.653212 3.911881 2.539484
vn 0.385656 -0.264200 -0.884007
v 4.648642 3.975870 2.494861
vn 0.321205 -0.585727 0.744145
v 4.603540 3.983066 2.854355
vn 0.130596 0.052732 -0.990032
v 4.586878 4.072895 2.465157
vn -0.721087 0.690340 -0.058862
v 4.713063 4.265502 2.595103
vn -0.334879 0.631939 -0.698935
v 4.636620 4.180761 2.492929
vn 0.539921 -0.830685 0.135827
v 4.686161 3.943043 2.672184
vn -0.727538 0.643143 0.238863
v 4.714471 4.276888 2.770428
vn 0.548594 -0.673088 0.495981
v 4.707295 3.979196 2.759361
vn -0.134314 0.118017 0.983886
v 4.689556 4.159102 2.879043
vn -0.330156 0.566218 -0.755244
v 4.747017 4.293472 2.520478
vn 0.257853 -0.019062 -0.965996
v 4.711772 4.116814 2.504896
vn -0.195434 0.396857 0.896833
v 4.753808 4.264561 2.858564
vn 0.091362 0.528185 0.844200
v 4.810166 4.348364 2.823020
vn 0.565164 -0.280293 0.775903
v 4.796662 4.147676 2.837803
vn -0.027936 0.719267 -0.694172
v 4.831696 4.363310 2.560972
vn 0.538782 -0.455810 -0.708485
v 4.763992 4.019273 2.537204
vn 0.734358 -0.650180 0.194896
v 4.819724 4.067082 2.696327
vn 0.264947 0.036747 -0.963562
v 4.865331 4.226804 2.528383
vn 0.856273 -0.446497 0.259688
v 4.897785 4.171548 2.696558
vn 0.725595 -0.260324 0.636980
v 4.889581 4.245166 2.774931
vn 0.929639 -0.072331 0.361303
v 4.926965 4.287694 2.740406
vn -0.620366 0.782866 -0.047619
v 4.795834 4.379101 2.666597
vn 0.368937 0.925965 0.080465
v 4.905661 4.432569 2.721515
vn 0.775408 0.233641 -0.586647
v 4.928598 4.320966 2.564049
vn 0.844584 -0.391581 -0.365160
v 4.886130 4.144200 2.548114
# 44 vertices, 0 vertices normals

f 2//2 1//1 8//8
f 2//2 8//8 3//3
f 13//13 2//2 3//3
f 6//6 10//10 2//2
f 10//10 1//1 2//2
f 6//6 2//2 13//13
f 5//5 10//10 6//6
f 3//3 4//4 13//13
f 1//1 11//11 8//8
f 1//1 10//10 7//7
f 9//9 3//3 8//8
f 3//3 9//9 4//4
f 11//11 17//17 8//8
f 5//5 7//7 10//10
f 12//12 4//4 9//9
f 14//14 5//5 6//6
f 22//22 5//5 14//14
f 13//13 14//14 6//6
f 9//9 8//8 17//17
f 14//14 13//13 15//15
f 11//11 1//1 7//7
f 4//4 15//15 13//13
f 19//19 17//17 11//11
f 16//16 9//9 17//17
f 12//12 9//9 16//16
f 12//12 16//16 21//21
f 15//15 18//18 14//14
f 24//24 14//14 18//18
f 5//5 22//22 7//7
f 15//15 4//4 12//12
f 28//28 15//15 12//12
f 22//22 20//20 7//7
f 14//14 24//24 22//22
f 11//11 7//7 19//19
f 27//27 21//21 16//16
f 7//7 20//20 19//19
f 16//16 17//17 25//25
f 16//16 25//25 27//27
f 20//20 22//22 30//30
f 24//24 18//18 23//23
f 19//19 25//25 17//17
f 30//30 22//22 24//24
f 18//18 15//15 23//23
f 28//28 12//12 21//21
f 28//28 31//31 26//26
f 29//29 24//24 23//23
f 26//26 15//15 28//28
f 20//20 35//35 19//19
f 25//25 19//19 36//36
f 19//19 35//35 36//36
f 35//35 20//20 30//30
f 15//15 26//26 23//23
f 41//41 23//23 26//26
f 28//28 21//21 27//27
f 30//30 24//24 29//29
f 25//25 36//36 27//27
f 33//33 28//28 27//27
f 37//37 35//35 30//30
f 31//31 32//32 26//26
f 23//23 41//41 29//29
f 41//41 26//26 32//32
f 33//33 31//31 28//28
f 34//34 29//29 41//41
f 27//27 36//36 33//33
f 29//29 37//37 30//30
f 36//36 35//35 44//44
f 37//37 44//44 35//35
f 31//31 33//33 32//32
f 32//32 42//42 41//41
f 39//39 33//33 36//36
f 34//34 37//37 29//29
f 39//39 36//36 38//38
f 39//39 32//32 33//33
f 32//32 40//40 42//42
f 34//34 43//43 37//37
f 40//40 32//32 39//39
f 42//42 34//34 41//41
f 44//44 38//38 36//36
f 40//40 39//39 38//38
f 42//42 43//43 34//34
f 40//40 38//38 44//44
f 37//37 43//43 44//44
f 44//44 43//43 40//40
f 43//43 42//42 40//40
# 84 faces, 0 coords texture

# End of File
