####
#
# OBJ File Generated by Meshlab
#
####
# Object GPi-L.obj
#
# Vertices: 47
# Faces: 90
#
####
vn -0.835800 0.125553 -0.534485
v 2.906466 4.321828 2.553811
vn -0.799235 -0.199009 -0.567114
v 2.917917 4.248672 2.540646
vn -0.930249 -0.304592 0.204597
v 2.921572 4.247929 2.714398
vn -0.984818 0.054441 0.164834
v 2.902213 4.390339 2.697687
vn -0.788598 0.453206 -0.415593
v 2.900373 4.401023 2.608721
vn -0.711988 0.398449 0.578196
v 2.945328 4.434518 2.773094
vn -0.840012 -0.537014 0.077436
v 2.954966 4.171404 2.647595
vn -0.763849 -0.517535 0.385607
v 2.984605 4.163341 2.774062
vn -0.789640 -0.243080 0.563366
v 2.962500 4.253322 2.794637
vn -0.837741 -0.050452 0.543732
v 2.926429 4.334834 2.768869
vn -0.310659 0.950513 0.003943
v 2.938876 4.490279 2.689785
vn -0.682313 -0.621574 -0.384832
v 3.042966 4.069827 2.559347
vn -0.751778 -0.657831 0.045704
v 2.991088 4.120874 2.620145
vn -0.794802 -0.512980 -0.324255
v 2.933443 4.208458 2.554536
vn -0.657987 -0.304304 0.688805
v 3.040140 4.233906 2.871991
vn -0.368929 -0.204067 -0.906779
v 3.027740 4.171564 2.523437
vn 0.379779 0.831262 0.405920
v 2.986998 4.443221 2.790624
vn 0.243258 0.497886 -0.832427
v 3.088357 4.292312 2.502006
vn -0.027994 0.492792 -0.869697
v 3.028022 4.374651 2.528836
vn -0.653797 -0.754150 0.061702
v 3.092647 4.025441 2.655590
vn -0.196915 -0.101943 -0.975106
v 3.190841 4.073123 2.484418
vn -0.543215 -0.513976 0.663887
v 3.143561 4.102586 2.883362
vn -0.281282 0.381051 0.880727
v 3.029782 4.341545 2.880006
vn -0.069721 0.068230 0.995230
v 3.133465 4.206886 2.932421
vn -0.553156 -0.745036 -0.372746
v 3.156622 3.968861 2.527542
vn 0.667461 0.727356 -0.159524
v 3.092580 4.345206 2.590657
vn -0.593748 -0.718067 0.363102
v 3.116319 4.022058 2.763502
vn 0.084164 -0.272630 0.958431
v 3.263229 4.048310 2.913203
vn -0.198443 -0.669229 -0.716067
v 3.263418 3.944483 2.493627
vn 0.651643 0.638634 0.409277
v 3.200000 4.223196 2.823209
vn 0.689655 0.716032 0.108048
v 3.111450 4.328341 2.767104
vn 0.602442 0.795596 -0.063953
v 3.272713 4.169662 2.549947
vn -0.343442 -0.874743 0.341865
v 3.232768 3.957552 2.772374
vn 0.438809 0.623025 -0.647523
v 3.223412 4.207750 2.487367
vn 0.635296 0.561332 0.530383
v 3.306916 4.101308 2.840961
vn 0.634984 0.762881 0.121687
v 3.295819 4.151852 2.745966
vn -0.278257 -0.959775 0.037494
v 3.265162 3.911918 2.594491
vn 0.035336 -0.913663 0.404934
v 3.317572 3.927016 2.731202
vn 0.541245 -0.351661 0.763798
v 3.366646 3.977032 2.846231
vn 0.580476 0.790481 -0.195419
v 3.341562 4.122386 2.533197
vn 0.431934 0.006726 -0.901880
v 3.420881 3.983049 2.475659
vn 0.642426 0.697816 0.316766
v 3.375337 4.099944 2.755647
vn 0.169674 -0.935886 -0.308752
v 3.396318 3.880714 2.582888
vn 0.824565 0.049129 0.563631
v 3.454746 4.002272 2.745090
vn 0.711538 0.678189 -0.183775
v 3.444175 4.066098 2.565749
vn 0.969466 -0.165659 -0.180812
v 3.522381 3.965661 2.595469
vn 0.336676 -0.846260 0.412909
v 3.465399 3.905434 2.692549
# 47 vertices, 0 vertices normals

f 5//5 1//1 4//4
f 3//3 2//2 14//14
f 4//4 1//1 2//2
f 2//2 3//3 4//4
f 4//4 3//3 10//10
f 10//10 6//6 4//4
f 4//4 11//11 5//5
f 8//8 3//3 7//7
f 3//3 14//14 7//7
f 3//3 9//9 10//10
f 19//19 1//1 5//5
f 10//10 23//23 6//6
f 4//4 6//6 11//11
f 14//14 13//13 7//7
f 8//8 9//9 3//3
f 1//1 19//19 2//2
f 19//19 5//5 11//11
f 17//17 11//11 6//6
f 12//12 13//13 14//14
f 8//8 7//7 13//13
f 16//16 2//2 19//19
f 27//27 13//13 20//20
f 16//16 12//12 14//14
f 2//2 16//16 14//14
f 8//8 15//15 9//9
f 9//9 15//15 10//10
f 10//10 15//15 23//23
f 6//6 23//23 17//17
f 26//26 19//19 11//11
f 13//13 27//27 8//8
f 19//19 18//18 16//16
f 26//26 11//11 17//17
f 26//26 17//17 31//31
f 20//20 13//13 12//12
f 18//18 21//21 16//16
f 22//22 15//15 27//27
f 15//15 8//8 27//27
f 15//15 24//24 23//23
f 30//30 31//31 17//17
f 19//19 26//26 18//18
f 16//16 25//25 12//12
f 21//21 25//25 16//16
f 24//24 15//15 22//22
f 18//18 34//34 21//21
f 12//12 25//25 20//20
f 17//17 23//23 30//30
f 30//30 23//23 24//24
f 27//27 20//20 25//25
f 26//26 32//32 18//18
f 25//25 21//21 29//29
f 28//28 22//22 27//27
f 28//28 24//24 22//22
f 25//25 33//33 27//27
f 18//18 32//32 34//34
f 30//30 24//24 28//28
f 31//31 30//30 36//36
f 33//33 28//28 27//27
f 38//38 33//33 37//37
f 25//25 37//37 33//33
f 26//26 36//36 32//32
f 36//36 30//30 35//35
f 25//25 29//29 37//37
f 30//30 28//28 35//35
f 26//26 31//31 36//36
f 28//28 33//33 39//39
f 39//39 35//35 28//28
f 36//36 40//40 32//32
f 37//37 29//29 43//43
f 47//47 37//37 43//43
f 33//33 38//38 39//39
f 21//21 41//41 29//29
f 35//35 42//42 36//36
f 34//34 32//32 40//40
f 44//44 42//42 39//39
f 42//42 35//35 39//39
f 21//21 34//34 41//41
f 47//47 38//38 37//37
f 34//34 40//40 41//41
f 42//42 40//40 36//36
f 41//41 43//43 29//29
f 40//40 45//45 41//41
f 42//42 45//45 40//40
f 38//38 44//44 39//39
f 38//38 47//47 44//44
f 42//42 44//44 45//45
f 43//43 46//46 47//47
f 46//46 41//41 45//45
f 41//41 46//46 43//43
f 47//47 46//46 44//44
f 46//46 45//45 44//44
# 90 faces, 0 coords texture

# End of File
