####
#
# OBJ File Generated by Meshlab
#
####
# Object PPN-R.obj
#
# Vertices: 22
# Faces: 40
#
####
vn -0.946446 -0.253676 0.199718
v 4.074052 5.150558 2.355634
vn -0.947099 0.315735 -0.057581
v 4.082385 5.237678 2.279360
vn -0.812509 -0.148731 -0.563656
v 4.133296 5.175769 2.234272
vn -0.424808 0.355872 0.832402
v 4.149654 5.180754 2.401781
vn -0.900547 -0.410069 0.144426
v 4.141088 5.070747 2.356779
vn -0.512889 0.829666 0.220451
v 4.122413 5.312196 2.276797
vn -0.461548 -0.731352 -0.502093
v 4.192005 4.984150 2.191934
vn -0.515323 -0.551344 0.656097
v 4.179320 5.005997 2.440878
vn -0.664513 -0.289923 -0.688743
v 4.218499 5.085152 2.122132
vn 0.490827 0.671003 0.555738
v 4.299528 5.230708 2.341986
vn 0.474428 0.847320 0.238677
v 4.225966 5.328286 2.236354
vn -0.669206 0.595314 -0.444708
v 4.186400 5.343769 2.164027
vn -0.796893 -0.035086 -0.603100
v 4.187753 5.194070 2.168428
vn 0.358743 -0.931627 -0.058084
v 4.257220 4.989248 2.286431
vn 0.478832 -0.084924 -0.873789
v 4.275674 5.219477 1.981670
vn 0.950016 0.308168 -0.050025
v 4.322818 5.246404 2.141770
vn -0.244577 0.775677 -0.581814
v 4.256308 5.332503 2.085874
vn 0.659067 -0.589989 0.466416
v 4.281738 5.007324 2.450362
vn 0.654144 0.249821 0.713923
v 4.298791 5.131855 2.417697
vn 0.927756 -0.363853 -0.082943
v 4.318066 5.063072 2.236218
vn 0.625087 -0.527776 -0.575082
v 4.308557 5.126383 2.081442
vn 0.949787 0.288579 0.120941
v 4.315397 5.207987 2.287619
# 22 vertices, 0 vertices normals

f 4//4 2//2 1//1
f 4//4 1//1 5//5
f 3//3 5//5 1//1
f 2//2 3//3 1//1
f 2//2 6//6 3//3
f 4//4 6//6 2//2
f 6//6 12//12 3//3
f 13//13 3//3 12//12
f 3//3 7//7 5//5
f 4//4 5//5 8//8
f 7//7 8//8 5//5
f 3//3 13//13 7//7
f 9//9 7//7 13//13
f 4//4 10//10 6//6
f 10//10 11//11 6//6
f 11//11 12//12 6//6
f 4//4 8//8 19//19
f 4//4 19//19 10//10
f 17//17 9//9 13//13
f 7//7 14//14 8//8
f 7//7 9//9 21//21
f 17//17 15//15 9//9
f 12//12 17//17 13//13
f 12//12 11//11 17//17
f 14//14 18//18 8//8
f 7//7 21//21 20//20
f 19//19 8//8 18//18
f 14//14 7//7 20//20
f 9//9 15//15 21//21
f 10//10 22//22 11//11
f 11//11 22//22 16//16
f 17//17 11//11 16//16
f 18//18 14//14 20//20
f 18//18 20//20 19//19
f 10//10 19//19 22//22
f 17//17 16//16 15//15
f 21//21 16//16 20//20
f 16//16 22//22 20//20
f 20//20 22//22 19//19
f 16//16 21//21 15//15
# 40 faces, 0 coords texture

# End of File
