####
#
# OBJ File Generated by Meshlab
#
####
# Object RN-R.obj
#
# Vertices: 25
# Faces: 46
#
####
vn -0.827430 -0.511085 -0.232708
v 3.989810 4.586584 2.474604
vn -0.969950 0.154453 -0.187993
v 3.967246 4.737148 2.418262
vn -0.782075 0.169099 0.599804
v 3.996815 4.713022 2.623477
vn -0.480629 -0.693843 0.536263
v 4.032519 4.544881 2.621347
vn -0.760002 -0.270847 -0.590795
v 3.987829 4.675176 2.354261
vn -0.531301 0.275076 -0.801282
v 4.050837 4.743788 2.297659
vn -0.753711 0.651525 -0.086229
v 4.001697 4.831113 2.443713
vn -0.037343 -0.765613 -0.642217
v 4.103884 4.553164 2.393937
vn -0.304383 0.779846 -0.546984
v 4.081479 4.839055 2.356537
vn -0.139749 0.431690 0.891131
v 4.071045 4.745761 2.647823
vn -0.382264 0.748883 0.541340
v 4.057573 4.841740 2.542481
vn -0.232713 0.963286 0.133887
v 4.074129 4.870599 2.502138
vn -0.107102 -0.935158 -0.337653
v 4.099507 4.488978 2.478273
vn -0.070677 -0.547957 -0.833516
v 4.119288 4.639726 2.298935
vn 0.227997 0.336705 0.913590
v 4.190424 4.734752 2.647987
vn 0.404765 0.777227 0.481751
v 4.221249 4.844123 2.531458
vn 0.486745 -0.866397 0.111513
v 4.209172 4.495080 2.549824
vn 0.064606 -0.298785 0.952131
v 4.194365 4.571977 2.648084
vn 0.317944 0.202361 -0.926262
v 4.199592 4.769971 2.290225
vn 0.347403 0.882434 -0.317210
v 4.184026 4.876211 2.386363
vn 0.601958 -0.562937 -0.566347
v 4.217153 4.632868 2.399277
vn 0.831735 0.034109 -0.554125
v 4.252867 4.781754 2.339409
vn 0.860682 -0.424951 -0.280433
v 4.263076 4.573447 2.522800
vn 0.843282 -0.085695 0.530595
v 4.282300 4.639648 2.634030
vn 0.957247 0.270873 -0.101522
v 4.289175 4.761651 2.426567
# 25 vertices, 0 vertices normals

f 5//5 1//1 2//2
f 3//3 2//2 1//1
f 7//7 2//2 3//3
f 11//11 7//7 3//3
f 1//1 4//4 3//3
f 6//6 5//5 2//2
f 7//7 9//9 6//6
f 6//6 2//2 7//7
f 8//8 13//13 1//1
f 4//4 1//1 13//13
f 1//1 14//14 8//8
f 5//5 14//14 1//1
f 14//14 5//5 6//6
f 10//10 11//11 3//3
f 7//7 12//12 9//9
f 7//7 11//11 12//12
f 18//18 3//3 4//4
f 10//10 3//3 18//18
f 10//10 16//16 11//11
f 12//12 20//20 9//9
f 13//13 17//17 4//4
f 10//10 15//15 16//16
f 15//15 10//10 18//18
f 6//6 19//19 14//14
f 16//16 12//12 11//11
f 8//8 21//21 13//13
f 21//21 17//17 13//13
f 9//9 19//19 6//6
f 4//4 17//17 18//18
f 8//8 14//14 21//21
f 24//24 15//15 18//18
f 19//19 9//9 20//20
f 12//12 16//16 20//20
f 19//19 21//21 14//14
f 20//20 22//22 19//19
f 20//20 16//16 25//25
f 17//17 23//23 24//24
f 17//17 24//24 18//18
f 23//23 17//17 21//21
f 22//22 21//21 19//19
f 16//16 15//15 24//24
f 22//22 23//23 21//21
f 22//22 25//25 23//23
f 24//24 23//23 25//25
f 22//22 20//20 25//25
f 25//25 16//16 24//24
# 46 faces, 0 coords texture

# End of File
