####
#
# OBJ File Generated by Meshlab
#
####
# Object SN-L.obj
#
# Vertices: 52
# Faces: 100
#
####
vn -0.833953 -0.156175 0.529274
v 3.284463 4.632585 2.510270
vn -0.947051 0.222913 -0.231093
v 3.300954 4.747553 2.451738
vn -0.907941 -0.414862 0.059442
v 3.309058 4.508164 2.448829
vn -0.901573 -0.011390 -0.432476
v 3.299114 4.645389 2.425282
vn -0.796893 0.111747 -0.593695
v 3.347418 4.730571 2.368268
vn -0.811173 0.513893 -0.279128
v 3.359146 4.851936 2.395757
vn -0.446988 0.491567 0.747371
v 3.332538 4.826124 2.547074
vn 0.308658 0.754842 0.578743
v 3.439010 4.898777 2.429417
vn -0.091933 -0.399228 0.912231
v 3.389211 4.509542 2.499199
vn -0.669112 0.742552 0.030103
v 3.422101 4.926024 2.364195
vn -0.749830 -0.661412 0.016978
v 3.375780 4.405930 2.411257
vn -0.691211 -0.256344 -0.675659
v 3.392389 4.502950 2.322227
vn -0.737201 -0.089143 -0.669767
v 3.383858 4.606697 2.324726
vn 0.181952 -0.174274 0.967741
v 3.407427 4.596868 2.531997
vn -0.806289 0.066082 -0.587819
v 3.429643 4.693700 2.266742
vn -0.136487 -0.500375 0.854983
v 3.455361 4.392915 2.457901
vn -0.584146 -0.803221 -0.116659
v 3.470374 4.324104 2.361472
vn -0.554537 -0.359598 -0.750452
v 3.494071 4.447413 2.272235
vn 0.498796 -0.051496 0.865188
v 3.515939 4.582757 2.468041
vn -0.913117 0.150003 -0.379101
v 3.442537 4.842124 2.262493
vn -0.342377 0.939029 -0.031672
v 3.476631 4.996180 2.274466
vn -0.770467 0.052582 -0.635308
v 3.479189 4.836633 2.187256
vn 0.676064 0.201091 0.708872
v 3.478739 4.701742 2.496397
vn 0.049340 -0.567954 0.821580
v 3.552223 4.333841 2.421701
vn 0.573898 0.555056 0.602124
v 3.493658 4.907947 2.352243
vn 0.396161 0.079983 0.914691
v 3.584106 4.513001 2.443605
vn -0.553517 -0.173414 -0.814584
v 3.577173 4.684829 2.117027
vn -0.098488 0.723367 -0.683404
v 3.554812 4.937005 2.130473
vn -0.623343 -0.265186 -0.735608
v 3.494877 4.570286 2.209971
vn 0.640888 0.316152 0.699508
v 3.555679 4.638927 2.410118
vn 0.719927 0.313980 0.618968
v 3.513324 4.786745 2.369434
vn -0.057884 -0.996763 0.055798
v 3.585144 4.264131 2.336609
vn -0.140011 -0.670587 -0.728499
v 3.631463 4.318491 2.249426
vn 0.013988 -0.588389 -0.808457
v 3.665642 4.382338 2.201456
vn -0.437770 0.073416 -0.896085
v 3.592555 4.826786 2.093184
vn 0.674746 0.561782 0.478663
v 3.610224 4.882178 2.243007
vn -0.349206 -0.364992 -0.863039
v 3.614223 4.520331 2.151250
vn 0.626910 0.296656 0.720402
v 3.678032 4.543642 2.372439
vn -0.243414 -0.037691 -0.969190
v 3.607444 4.753382 2.084320
vn 0.535529 -0.222223 0.814755
v 3.678391 4.404159 2.412471
vn -0.145389 -0.272168 -0.951203
v 3.670120 4.642702 2.090204
vn 0.570112 0.386255 0.725106
v 3.616556 4.699061 2.335935
vn 0.703618 -0.707278 -0.068404
v 3.710015 4.321344 2.333996
vn 0.560770 0.656031 -0.505134
v 3.693842 4.852050 2.093158
vn 0.653662 0.356499 0.667559
v 3.688807 4.625937 2.317125
vn 0.773317 -0.324629 -0.544608
v 3.796120 4.599851 2.109827
vn 0.676638 0.463116 0.572438
v 3.725914 4.729920 2.227686
vn 0.948344 -0.197743 0.248074
v 3.760336 4.423049 2.310644
vn 0.878066 0.121312 0.462907
v 3.777879 4.583562 2.244412
vn 0.367718 -0.529168 -0.764699
v 3.734967 4.504077 2.139919
vn 0.931604 0.303559 0.199913
v 3.818274 4.695904 2.139807
vn 0.399203 0.057616 -0.915050
v 3.783283 4.711854 2.077454
# 52 vertices, 0 vertices normals

f 2//2 4//4 1//1
f 2//2 1//1 7//7
f 3//3 1//1 4//4
f 7//7 1//1 14//14
f 1//1 3//3 9//9
f 13//13 3//3 4//4
f 2//2 5//5 4//4
f 2//2 6//6 5//5
f 7//7 6//6 2//2
f 3//3 12//12 11//11
f 14//14 1//1 9//9
f 13//13 4//4 5//5
f 3//3 13//13 12//12
f 8//8 6//6 7//7
f 16//16 3//3 11//11
f 3//3 16//16 9//9
f 15//15 5//5 6//6
f 10//10 6//6 8//8
f 12//12 17//17 11//11
f 23//23 7//7 14//14
f 20//20 15//15 10//10
f 6//6 10//10 15//15
f 16//16 11//11 17//17
f 9//9 16//16 19//19
f 13//13 18//18 12//12
f 29//29 18//18 13//13
f 14//14 9//9 19//19
f 5//5 15//15 13//13
f 8//8 7//7 23//23
f 21//21 20//20 10//10
f 10//10 8//8 25//25
f 15//15 29//29 13//13
f 15//15 20//20 22//22
f 18//18 17//17 12//12
f 29//29 15//15 22//22
f 31//31 8//8 23//23
f 21//21 22//22 20//20
f 21//21 10//10 25//25
f 14//14 19//19 23//23
f 31//31 25//25 8//8
f 32//32 24//24 17//17
f 17//17 24//24 16//16
f 26//26 19//19 16//16
f 21//21 28//28 22//22
f 17//17 18//18 32//32
f 24//24 26//26 16//16
f 19//19 30//30 23//23
f 30//30 42//42 31//31
f 31//31 23//23 30//30
f 29//29 33//33 18//18
f 37//37 29//29 27//27
f 22//22 27//27 29//29
f 27//27 22//22 35//35
f 28//28 35//35 22//22
f 36//36 25//25 31//31
f 36//36 21//21 25//25
f 28//28 21//21 36//36
f 32//32 18//18 33//33
f 37//37 34//34 29//29
f 29//29 34//34 33//33
f 40//40 26//26 24//24
f 26//26 30//30 19//19
f 24//24 32//32 40//40
f 39//39 27//27 35//35
f 41//41 37//37 27//27
f 42//42 30//30 38//38
f 41//41 27//27 39//39
f 44//44 35//35 28//28
f 26//26 38//38 30//30
f 42//42 36//36 31//31
f 36//36 44//44 28//28
f 33//33 43//43 32//32
f 43//43 40//40 32//32
f 40//40 38//38 26//26
f 50//50 37//37 41//41
f 45//45 42//42 38//38
f 36//36 42//42 47//47
f 34//34 43//43 33//33
f 52//52 41//41 39//39
f 39//39 44//44 52//52
f 35//35 44//44 39//39
f 44//44 36//36 47//47
f 34//34 37//37 50//50
f 40//40 48//48 38//38
f 41//41 46//46 50//50
f 45//45 47//47 42//42
f 51//51 44//44 47//47
f 40//40 43//43 48//48
f 45//45 38//38 49//49
f 45//45 49//49 51//51
f 50//50 43//43 34//34
f 49//49 38//38 48//48
f 41//41 52//52 46//46
f 47//47 45//45 51//51
f 50//50 48//48 43//43
f 48//48 50//50 46//46
f 52//52 51//51 46//46
f 46//46 49//49 48//48
f 52//52 44//44 51//51
f 51//51 49//49 46//46
# 100 faces, 0 coords texture

# End of File
