####
#
# OBJ File Generated by Meshlab
#
####
# Object SN-R.obj
#
# Vertices: 50
# Faces: 96
#
####
vn -0.868732 0.493719 -0.039313
v 4.054568 4.759857 2.098990
vn -0.668855 0.460709 0.583421
v 4.095291 4.696446 2.218156
vn -0.899288 -0.427195 0.093729
v 4.084633 4.399273 2.292538
vn -0.457517 -0.197929 -0.866892
v 4.061740 4.659549 2.087077
vn -0.790777 -0.355096 -0.498576
v 4.066488 4.487591 2.190914
vn -0.851813 0.126136 0.508433
v 4.080769 4.523656 2.308926
vn -0.554462 0.050480 0.830677
v 4.136714 4.447461 2.384436
vn -0.949977 0.153060 0.272243
v 4.049861 4.608051 2.223755
vn 0.234844 -0.347487 -0.907800
v 4.175161 4.588763 2.098574
vn -0.591716 -0.661176 0.461214
v 4.159386 4.297608 2.374731
vn -0.545431 0.368020 0.753038
v 4.213035 4.622815 2.342105
vn 0.310277 -0.076206 -0.947587
v 4.222985 4.718727 2.080712
vn -0.643695 0.333282 0.688898
v 4.266365 4.762886 2.332593
vn -0.296888 -0.605171 -0.738665
v 4.128158 4.373058 2.218647
vn -0.280616 -0.494468 -0.822652
v 4.124718 4.513093 2.144212
vn -0.706810 0.658112 0.259436
v 4.210923 4.878607 2.180176
vn 0.450779 -0.318340 -0.833941
v 4.261124 4.577673 2.141309
vn -0.436414 0.087338 0.895497
v 4.219248 4.491475 2.413693
vn -0.596866 0.702235 0.388094
v 4.284575 4.954270 2.234090
vn -0.178209 0.493574 -0.851250
v 4.197055 4.861822 2.084356
vn 0.103481 0.850559 -0.515598
v 4.300998 4.959673 2.177954
vn -0.071696 -0.897291 -0.435578
v 4.221498 4.279298 2.283473
vn 0.172664 -0.457883 -0.872084
v 4.231474 4.454056 2.184461
vn 0.571796 0.162787 -0.804083
v 4.270226 4.862447 2.112524
vn -0.540934 -0.059928 0.838927
v 4.311344 4.541007 2.456005
vn 0.640730 -0.104826 -0.760576
v 4.306308 4.717113 2.141710
vn -0.720251 0.287278 0.631434
v 4.341158 4.699905 2.408183
vn 0.390745 -0.472640 -0.789892
v 4.303839 4.375334 2.250873
vn 0.734411 -0.072651 -0.674805
v 4.359330 4.647295 2.209596
vn -0.644695 0.097023 0.758258
v 4.362554 4.653059 2.492237
vn 0.816018 0.131029 -0.562980
v 4.376099 4.854513 2.231955
vn -0.548989 0.563349 0.617454
v 4.367942 4.848631 2.397817
vn 0.465392 0.876791 0.121029
v 4.369136 4.959797 2.283467
vn -0.016824 -0.652941 0.757222
v 4.314611 4.281450 2.397978
vn 0.217415 -0.539599 0.813366
v 4.461491 4.442996 2.484813
vn -0.250483 -0.254910 0.933959
v 4.402859 4.537890 2.508015
vn -0.063452 -0.419155 0.905695
v 4.361931 4.343271 2.427612
vn 0.659292 -0.746170 -0.092541
v 4.443382 4.346453 2.392595
vn 0.634432 -0.234215 -0.736640
v 4.397484 4.491465 2.265811
vn 0.772536 0.039774 -0.633724
v 4.416337 4.642221 2.282376
vn 0.750854 0.616227 -0.237662
v 4.421503 4.877016 2.337076
vn 0.080198 0.948079 0.307757
v 4.419196 4.879033 2.421576
vn -0.545484 0.354402 0.759504
v 4.411811 4.730639 2.525759
vn 0.694996 -0.270376 0.666242
v 4.547522 4.565155 2.509064
vn 0.523142 0.274799 0.806727
v 4.513431 4.775089 2.543578
vn -0.109362 -0.150048 0.982612
v 4.479982 4.605732 2.537279
vn 0.822418 0.298379 -0.484354
v 4.478088 4.784950 2.362257
vn 0.635698 0.743377 0.208036
v 4.516346 4.822585 2.476566
vn 0.915993 -0.228882 -0.329499
v 4.527164 4.478513 2.402182
vn 0.977510 0.112769 -0.178205
v 4.534611 4.690926 2.445243
# 50 vertices, 0 vertices normals

f 1//1 4//4 8//8
f 5//5 6//6 8//8
f 8//8 4//4 15//15
f 1//1 8//8 2//2
f 3//3 6//6 5//5
f 8//8 15//15 5//5
f 3//3 5//5 14//14
f 3//3 7//7 6//6
f 4//4 1//1 20//20
f 9//9 15//15 4//4
f 16//16 1//1 2//2
f 3//3 10//10 7//7
f 11//11 6//6 7//7
f 20//20 12//12 4//4
f 3//3 14//14 22//22
f 14//14 5//5 23//23
f 15//15 23//23 5//5
f 8//8 6//6 11//11
f 4//4 12//12 9//9
f 20//20 1//1 16//16
f 10//10 3//3 22//22
f 13//13 2//2 8//8
f 11//11 13//13 8//8
f 34//34 10//10 22//22
f 14//14 28//28 22//22
f 7//7 10//10 34//34
f 18//18 7//7 34//34
f 17//17 23//23 15//15
f 16//16 2//2 13//13
f 23//23 28//28 14//14
f 17//17 15//15 9//9
f 11//11 7//7 18//18
f 16//16 21//21 20//20
f 16//16 13//13 19//19
f 20//20 24//24 12//12
f 18//18 34//34 37//37
f 27//27 18//18 25//25
f 18//18 27//27 11//11
f 9//9 26//26 17//17
f 27//27 13//13 11//11
f 9//9 12//12 26//26
f 32//32 19//19 13//13
f 20//20 21//21 24//24
f 16//16 19//19 21//21
f 23//23 39//39 28//28
f 24//24 26//26 12//12
f 25//25 18//18 37//37
f 24//24 31//31 26//26
f 31//31 24//24 21//21
f 32//32 33//33 19//19
f 38//38 34//34 22//22
f 17//17 29//29 39//39
f 17//17 39//39 23//23
f 25//25 30//30 27//27
f 26//26 29//29 17//17
f 27//27 32//32 13//13
f 33//33 31//31 21//21
f 22//22 28//28 38//38
f 36//36 30//30 25//25
f 26//26 31//31 29//29
f 33//33 21//21 19//19
f 40//40 39//39 29//29
f 27//27 30//30 43//43
f 27//27 43//43 32//32
f 32//32 41//41 33//33
f 38//38 37//37 34//34
f 35//35 25//25 37//37
f 29//29 31//31 40//40
f 30//30 36//36 46//46
f 33//33 41//41 31//31
f 32//32 42//42 41//41
f 35//35 36//36 25//25
f 43//43 42//42 32//32
f 37//37 38//38 35//35
f 28//28 39//39 38//38
f 49//49 39//39 40//40
f 46//46 43//43 30//30
f 40//40 41//41 47//47
f 41//41 40//40 31//31
f 43//43 48//48 42//42
f 42//42 47//47 41//41
f 49//49 38//38 39//39
f 48//48 43//43 45//45
f 47//47 42//42 48//48
f 35//35 44//44 36//36
f 44//44 46//46 36//36
f 46//46 45//45 43//43
f 49//49 35//35 38//38
f 48//48 50//50 47//47
f 47//47 49//49 40//40
f 47//47 50//50 49//49
f 44//44 50//50 45//45
f 45//45 46//46 44//44
f 50//50 48//48 45//45
f 44//44 35//35 49//49
f 50//50 44//44 49//49
# 96 faces, 0 coords texture

# End of File
