####
#
# OBJ File Generated by Meshlab
#
####
# Object STN-L.obj
#
# Vertices: 16
# Faces: 28
#
####
vn -0.599161 0.525534 0.604004
v 3.345783 4.542419 2.633306
vn -0.830569 -0.192954 -0.522421
v 3.377690 4.462271 2.528244
vn -0.605039 -0.632554 0.483532
v 3.398701 4.370563 2.663758
vn -0.502316 0.845812 -0.179671
v 3.393297 4.577651 2.545431
vn -0.582179 -0.196773 -0.788890
v 3.447475 4.428983 2.461153
vn -0.508332 -0.822166 -0.256206
v 3.522157 4.325211 2.517077
vn 0.335258 0.217279 0.916729
v 3.478645 4.465924 2.656727
vn -0.069551 0.795479 -0.601977
v 3.492652 4.592795 2.478873
vn 0.271740 -0.655656 0.704466
v 3.546537 4.307793 2.606907
vn 0.369648 0.751614 0.546294
v 3.474516 4.549977 2.600157
vn -0.295019 -0.525319 -0.798125
v 3.540403 4.346291 2.433079
vn 0.744184 0.666608 0.042715
v 3.614706 4.500329 2.484263
vn 0.755121 0.252108 0.605172
v 3.613518 4.436204 2.559632
vn 0.148130 0.358989 -0.921512
v 3.584879 4.488247 2.431703
vn 0.395127 -0.918626 -0.000653
v 3.665332 4.289297 2.491903
vn 0.840822 0.125104 -0.526656
v 3.686279 4.364124 2.424188
# 16 vertices, 0 vertices normals

f 3//3 1//1 2//2
f 7//7 1//1 3//3
f 1//1 4//4 2//2
f 2//2 4//4 8//8
f 4//4 1//1 10//10
f 2//2 5//5 6//6
f 7//7 10//10 1//1
f 6//6 9//9 3//3
f 2//2 6//6 3//3
f 5//5 11//11 6//6
f 8//8 5//5 2//2
f 4//4 10//10 8//8
f 5//5 8//8 14//14
f 9//9 7//7 3//3
f 5//5 14//14 11//11
f 13//13 10//10 7//7
f 12//12 8//8 10//10
f 15//15 9//9 6//6
f 13//13 7//7 9//9
f 10//10 13//13 12//12
f 11//11 15//15 6//6
f 8//8 12//12 14//14
f 15//15 11//11 16//16
f 14//14 16//16 11//11
f 13//13 9//9 15//15
f 12//12 13//13 16//16
f 16//16 14//14 12//12
f 16//16 13//13 15//15
# 28 faces, 0 coords texture

# End of File
