####
#
# OBJ File Generated by Meshlab
#
####
# Object STN-R.obj
#
# Vertices: 16
# Faces: 28
#
####
vn -0.689404 -0.716622 0.105710
v 4.184916 4.287375 2.490325
vn -0.821572 0.177290 0.541837
v 4.189149 4.382426 2.519838
vn -0.865560 0.003204 -0.500796
v 4.155165 4.381560 2.401974
vn -0.607830 0.190423 0.770897
v 4.269532 4.402518 2.599591
vn -0.272113 -0.683396 0.677440
v 4.328263 4.289700 2.616412
vn -0.381748 0.737745 -0.556777
v 4.263308 4.504675 2.441005
vn -0.307739 0.900331 0.307734
v 4.352502 4.568879 2.533847
vn 0.247565 -0.664083 -0.705482
v 4.277880 4.306341 2.414902
vn -0.343017 0.006487 0.939307
v 4.346721 4.394405 2.659347
vn 0.357951 0.659461 -0.661047
v 4.386655 4.547199 2.477709
vn 0.307275 -0.869456 0.386818
v 4.413021 4.314593 2.608391
vn 0.652015 -0.560444 0.510665
v 4.469347 4.373192 2.659215
vn 0.007776 0.723553 0.690225
v 4.424884 4.518690 2.631097
vn 0.760198 -0.153564 -0.631282
v 4.434700 4.414129 2.479793
vn 0.752693 0.298728 0.586698
v 4.499061 4.461455 2.654383
vn 0.661844 0.743510 -0.095683
v 4.452585 4.538971 2.559114
# 16 vertices, 0 vertices normals

f 1//1 3//3 8//8
f 3//3 1//1 2//2
f 6//6 3//3 2//2
f 4//4 6//6 2//2
f 1//1 5//5 2//2
f 5//5 4//4 2//2
f 4//4 7//7 6//6
f 1//1 8//8 5//5
f 3//3 6//6 8//8
f 7//7 4//4 9//9
f 11//11 5//5 8//8
f 6//6 7//7 10//10
f 9//9 4//4 11//11
f 4//4 5//5 11//11
f 14//14 6//6 10//10
f 8//8 14//14 11//11
f 6//6 14//14 8//8
f 7//7 9//9 13//13
f 15//15 9//9 12//12
f 7//7 16//16 10//10
f 11//11 12//12 9//9
f 15//15 13//13 9//9
f 7//7 13//13 16//16
f 14//14 12//12 11//11
f 10//10 16//16 14//14
f 15//15 12//12 14//14
f 16//16 15//15 14//14
f 16//16 13//13 15//15
# 28 faces, 0 coords texture

# End of File
