####
#
# OBJ File Generated by Meshlab
#
####
# Object VTA-L.obj
#
# Vertices: 45
# Faces: 88
#
####
vn -0.100674 0.590380 0.800822
v 3.493204 4.797842 2.449836
vn -0.755496 -0.122334 0.643631
v 3.499139 4.694722 2.457908
vn -0.854411 0.180624 -0.487193
v 3.485372 4.821876 2.385279
vn -0.896010 -0.442811 0.032935
v 3.527040 4.591009 2.480402
vn 0.701580 0.338646 0.626981
v 3.565958 4.714972 2.452175
vn -0.763654 -0.323320 0.558835
v 3.639429 4.770298 2.280471
vn -0.181574 -0.243233 -0.952821
v 3.571550 4.737860 2.353493
vn 0.663390 0.746997 0.043699
v 3.569478 4.826959 2.349705
vn -0.705390 -0.541374 -0.457536
v 3.589205 4.532447 2.428338
vn -0.725295 -0.058557 0.685943
v 3.614118 4.851544 2.304301
vn -0.637669 -0.321951 -0.699804
v 3.699828 4.546382 2.357241
vn -0.052156 0.081800 -0.995283
v 3.602677 4.686696 2.357798
vn -0.300464 -0.501143 0.811528
v 3.664263 4.485744 2.497311
vn 0.403274 0.469238 0.785612
v 3.608014 4.598314 2.466332
vn -0.726102 -0.346771 -0.593738
v 3.773885 4.669968 2.215396
vn -0.681785 0.452520 -0.574800
v 3.664607 4.866884 2.171449
vn -0.777406 0.628719 0.018769
v 3.692891 4.652488 2.302065
vn -0.370816 -0.268071 0.889176
v 3.735275 4.750669 2.260875
vn -0.329154 0.214299 -0.919638
v 3.746129 4.826188 2.111361
vn -0.132559 0.835957 0.532545
v 3.763324 4.901804 2.410765
vn -0.436632 -0.885205 -0.160513
v 3.717357 4.408717 2.383181
vn -0.105664 -0.185150 0.977013
v 3.728263 4.475670 2.489098
vn -0.160170 0.781866 0.602520
v 3.748905 4.550576 2.402663
vn 0.072808 -0.709227 -0.701211
v 3.787501 4.500773 2.276348
vn -0.398029 -0.471338 -0.787028
v 3.806176 4.604937 2.180643
vn -0.301104 0.450167 0.840647
v 3.771674 4.664306 2.286609
vn 0.360424 0.880376 -0.308275
v 3.847232 4.887428 2.247884
vn 0.709829 -0.539467 -0.452899
v 3.839893 4.523091 2.323350
vn -0.882863 0.370483 0.288611
v 3.862958 4.629495 2.432521
vn -0.815412 0.279222 0.507088
v 3.854417 4.666901 2.604539
vn -0.013906 -0.375332 -0.926786
v 3.824846 4.708251 2.107844
vn -0.814774 0.025256 0.579228
v 3.837368 4.687250 2.354009
vn -0.197946 -0.148440 0.968908
v 3.834146 4.538782 2.559278
vn 0.321644 0.499040 -0.804677
v 3.822525 4.800452 2.107316
vn 0.444490 -0.885920 0.132569
v 3.832995 4.423399 2.458893
vn 0.692463 -0.146955 -0.706328
v 3.863101 4.770755 2.109171
vn -0.228980 0.539905 0.809982
v 3.883077 4.747545 2.562967
vn -0.658180 0.327015 0.678130
v 3.868673 4.830103 2.448147
vn 0.845091 -0.528860 0.078283
v 3.911111 4.516248 2.456479
vn 0.801958 -0.123534 0.584467
v 3.923276 4.641981 2.562536
vn -0.993948 0.107371 -0.023223
v 3.890365 4.717259 2.512331
vn 0.641003 0.759155 0.113129
v 3.891643 4.860118 2.326492
vn 0.874451 0.384088 -0.296329
v 3.930297 4.781913 2.215474
vn 0.924183 -0.284261 -0.255112
v 3.926021 4.667677 2.287450
vn 0.848452 0.416369 0.326750
v 3.930772 4.758043 2.524791
# 45 vertices, 0 vertices normals

f 3//3 2//2 1//1
f 2//2 5//5 1//1
f 7//7 2//2 3//3
f 2//2 4//4 14//14
f 3//3 8//8 7//7
f 1//1 8//8 3//3
f 2//2 7//7 4//4
f 12//12 4//4 7//7
f 5//5 2//2 14//14
f 6//6 8//8 10//10
f 1//1 5//5 8//8
f 14//14 4//4 13//13
f 12//12 7//7 5//5
f 7//7 8//8 5//5
f 13//13 4//4 9//9
f 4//4 12//12 9//9
f 12//12 5//5 14//14
f 10//10 8//8 6//6
f 9//9 21//21 13//13
f 12//12 11//11 9//9
f 11//11 12//12 17//17
f 14//14 17//17 12//12
f 10//10 16//16 6//6
f 22//22 13//13 21//21
f 9//9 11//11 21//21
f 6//6 18//18 10//10
f 13//13 22//22 14//14
f 15//15 17//17 6//6
f 16//16 15//15 6//6
f 20//20 10//10 18//18
f 16//16 10//10 20//20
f 23//23 17//17 14//14
f 26//26 6//6 17//17
f 26//26 18//18 6//6
f 16//16 19//19 15//15
f 20//20 27//27 16//16
f 14//14 22//22 23//23
f 25//25 24//24 11//11
f 17//17 25//25 11//11
f 23//23 26//26 17//17
f 16//16 27//27 19//19
f 22//22 21//21 35//35
f 21//21 11//11 24//24
f 17//17 15//15 25//25
f 33//33 23//23 22//22
f 19//19 34//34 31//31
f 35//35 21//21 24//24
f 35//35 33//33 22//22
f 19//19 31//31 15//15
f 18//18 38//38 20//20
f 24//24 28//28 35//35
f 29//29 26//26 23//23
f 29//29 23//23 33//33
f 31//31 25//25 15//15
f 32//32 18//18 26//26
f 34//34 36//36 31//31
f 27//27 34//34 19//19
f 25//25 28//28 24//24
f 28//28 25//25 31//31
f 29//29 32//32 26//26
f 38//38 18//18 32//32
f 33//33 35//35 39//39
f 33//33 30//30 29//29
f 36//36 28//28 31//31
f 27//27 20//20 42//42
f 28//28 36//36 44//44
f 33//33 40//40 30//30
f 30//30 41//41 29//29
f 30//30 37//37 41//41
f 29//29 38//38 32//32
f 30//30 40//40 37//37
f 41//41 38//38 29//29
f 43//43 36//36 34//34
f 41//41 37//37 38//38
f 28//28 39//39 35//35
f 33//33 39//39 40//40
f 43//43 34//34 27//27
f 42//42 45//45 43//43
f 38//38 45//45 42//42
f 42//42 20//20 38//38
f 39//39 28//28 44//44
f 37//37 40//40 45//45
f 45//45 38//38 37//37
f 42//42 43//43 27//27
f 44//44 40//40 39//39
f 44//44 45//45 40//40
f 44//44 43//43 45//45
f 43//43 44//44 36//36
# 88 faces, 0 coords texture

# End of File
