####
#
# OBJ File Generated by Meshlab
#
####
# Object VTA-R.obj
#
# Vertices: 46
# Faces: 92
#
####
vn -0.999304 -0.003347 0.037144
v 3.929063 4.704559 2.526400
vn -0.854340 -0.519538 -0.013518
v 3.936476 4.511757 2.433043
vn -0.927846 -0.233587 -0.290756
v 3.947771 4.666038 2.240031
vn -0.404263 0.169875 -0.898729
v 4.003514 4.776916 2.086614
vn -0.797485 0.537984 0.273113
v 3.936322 4.791062 2.521106
vn -0.829368 0.537815 0.151343
v 3.931525 4.817457 2.418247
vn -0.856713 0.413073 -0.308891
v 3.935547 4.787206 2.228642
vn -0.623296 -0.629359 0.464121
v 3.943503 4.542266 2.551449
vn -0.869000 0.060501 0.491100
v 3.937416 4.665190 2.612045
vn -0.021933 -0.535395 -0.844317
v 4.011696 4.630460 2.167750
vn -0.267500 0.922671 -0.277708
v 4.013057 4.801083 2.178255
vn 0.942244 0.305903 -0.136381
v 3.987313 4.662231 2.580816
vn 0.497007 -0.478055 0.724187
v 4.020130 4.618911 2.672511
vn 0.955553 0.247780 0.159760
v 3.972009 4.655423 2.421000
vn 0.456478 0.775459 0.436224
v 3.971434 4.793648 2.571578
vn -0.277787 0.937467 -0.209738
v 3.972031 4.889724 2.312297
vn -0.003545 -0.600467 -0.799641
v 4.035525 4.516676 2.249042
vn 0.873661 -0.260154 0.411141
v 4.016780 4.589905 2.604360
vn 0.529496 0.669269 0.521261
v 3.983756 4.825430 2.462592
vn 0.511817 0.475870 0.715256
v 4.008927 4.720333 2.672081
vn 0.223121 -0.703330 0.674940
v 4.033096 4.490858 2.521076
vn 0.380488 0.643350 0.664326
v 4.078857 4.545598 2.391105
vn 0.647427 -0.405232 -0.645465
v 4.059542 4.659415 2.212925
vn 0.438472 0.167276 -0.883041
v 4.091742 4.816334 2.104565
vn 0.005613 -0.827899 -0.560849
v 4.059516 4.422686 2.323934
vn -0.113108 -0.825971 0.552249
v 4.034411 4.422835 2.470656
vn 0.604803 -0.317590 -0.730308
v 4.094549 4.536842 2.315752
vn 0.391752 0.658075 0.643015
v 4.084805 4.871430 2.373272
vn 0.956892 0.135518 -0.256889
v 4.137147 4.646410 2.291287
vn 0.473776 0.722912 -0.502926
v 4.181891 4.851898 2.196165
vn 0.563736 -0.033163 0.825289
v 4.019974 4.703227 2.305263
vn 0.611254 -0.782594 0.117961
v 4.208724 4.730128 2.299478
vn 0.129645 0.823260 0.552662
v 4.148102 4.840703 2.303094
vn 0.142715 -0.603148 0.784758
v 4.189788 4.487211 2.504193
vn 0.517612 -0.763269 -0.386650
v 4.148934 4.430325 2.387056
vn 0.508621 -0.309054 -0.803611
v 4.223750 4.646009 2.336411
vn -0.638695 0.545806 0.542370
v 4.227905 4.636313 2.423123
vn -0.628417 0.450379 0.634232
v 4.272607 4.794850 2.378154
vn 0.016167 0.902981 0.429377
v 4.258982 4.842820 2.327865
vn 0.641942 -0.647383 -0.410861
v 4.238744 4.499856 2.416954
vn -0.293841 0.278100 0.914504
v 4.261005 4.566649 2.532261
vn 0.741761 -0.114295 -0.660853
v 4.287968 4.784755 2.343767
vn 0.785500 -0.188109 -0.589581
v 4.325431 4.683318 2.396283
vn 0.521283 0.484478 0.702528
v 4.354341 4.709503 2.484625
vn 0.791705 -0.532406 0.299578
v 4.347493 4.562725 2.504042
vn 0.572023 0.810971 0.122947
v 4.366503 4.805231 2.418674
# 46 vertices, 0 vertices normals

f 1//1 2//2 8//8
f 1//1 8//8 9//9
f 1//1 3//3 2//2
f 6//6 3//3 1//1
f 3//3 7//7 4//4
f 7//7 3//3 6//6
f 9//9 5//5 1//1
f 9//9 15//15 5//5
f 6//6 1//1 5//5
f 21//21 8//8 2//2
f 10//10 3//3 4//4
f 6//6 5//5 19//19
f 16//16 7//7 6//6
f 26//26 2//2 25//25
f 2//2 26//26 21//21
f 3//3 17//17 2//2
f 8//8 13//13 9//9
f 20//20 9//9 13//13
f 14//14 15//15 12//12
f 11//11 4//4 7//7
f 19//19 15//15 14//14
f 16//16 11//11 7//7
f 2//2 17//17 25//25
f 12//12 22//22 14//14
f 12//12 18//18 22//22
f 31//31 19//19 14//14
f 20//20 15//15 9//9
f 19//19 5//5 15//15
f 33//33 11//11 16//16
f 28//28 16//16 6//6
f 6//6 19//19 28//28
f 21//21 18//18 8//8
f 18//18 13//13 8//8
f 22//22 18//18 21//21
f 10//10 17//17 3//3
f 22//22 31//31 14//14
f 15//15 20//20 12//12
f 28//28 19//19 31//31
f 29//29 31//31 22//22
f 10//10 4//4 23//23
f 18//18 12//12 13//13
f 23//23 4//4 24//24
f 12//12 20//20 13//13
f 27//27 17//17 23//23
f 17//17 10//10 23//23
f 33//33 28//28 31//31
f 24//24 4//4 11//11
f 28//28 33//33 16//16
f 27//27 25//25 17//17
f 35//35 26//26 25//25
f 11//11 30//30 24//24
f 11//11 33//33 30//30
f 23//23 29//29 27//27
f 33//33 31//31 32//32
f 21//21 26//26 22//22
f 32//32 31//31 29//29
f 23//23 24//24 32//32
f 26//26 34//34 22//22
f 25//25 27//27 35//35
f 30//30 32//32 24//24
f 26//26 35//35 34//34
f 27//27 36//36 35//35
f 32//32 29//29 23//23
f 40//40 34//34 35//35
f 41//41 37//37 22//22
f 36//36 27//27 29//29
f 37//37 29//29 22//22
f 36//36 29//29 32//32
f 41//41 22//22 34//34
f 37//37 32//32 29//29
f 33//33 32//32 39//39
f 35//35 36//36 40//40
f 32//32 37//37 38//38
f 32//32 38//38 39//39
f 33//33 39//39 30//30
f 45//45 34//34 40//40
f 41//41 34//34 45//45
f 36//36 43//43 40//40
f 30//30 42//42 32//32
f 39//39 42//42 30//30
f 36//36 32//32 42//42
f 40//40 43//43 45//45
f 41//41 44//44 37//37
f 44//44 38//38 37//37
f 43//43 36//36 42//42
f 44//44 46//46 38//38
f 42//42 39//39 46//46
f 44//44 41//41 45//45
f 39//39 38//38 46//46
f 44//44 45//45 43//43
f 42//42 44//44 43//43
f 46//46 44//44 42//42
# 92 faces, 0 coords texture

# End of File
